{"glyphs":{"0":{"ha":824,"x_min":0,"x_max":785,"o":"m 711 739 q 766 567 747 664 q 785 365 785 471 q 777 242 785 304 q 755 122 769 181 q 720 13 740 64 q 675 -79 700 -39 q 549 -199 622 -164 q 393 -233 476 -233 q 231 -190 310 -233 q 97 -62 151 -146 q 21 131 42 18 q 0 365 0 243 q 17 576 0 476 q 79 754 35 675 q 217 913 133 854 q 393 971 300 971 q 572 909 490 971 q 711 739 654 847 m 390 -164 q 472 -122 432 -164 q 542 -8 511 -81 q 592 160 574 64 q 611 365 611 257 q 592 574 611 475 q 541 747 572 674 q 470 865 510 821 q 389 908 431 908 q 308 865 349 908 q 236 747 268 821 q 185 574 204 674 q 165 365 165 475 q 185 160 165 257 q 238 -8 206 64 q 310 -122 269 -81 q 390 -164 350 -164 m 253 872 q 176 806 204 843 q 125 738 147 768 q 106 706 117 725 q 86 665 96 688 q 69 622 76 643 q 61 582 63 600 l 97 515 l 140 582 q 151 662 146 628 q 164 719 156 696 q 178 757 169 736 q 199 799 188 778 q 224 839 211 819 q 253 872 238 858 m 49 397 l 86 343 l 126 397 l 86 450 l 49 397 m 269 -157 q 236 -120 254 -143 q 201 -69 218 -97 q 171 -12 185 -42 q 151 42 157 17 q 138 127 142 85 q 133 206 133 169 l 90 272 l 54 206 q 72 120 58 169 q 107 28 85 71 q 181 -84 142 -40 q 269 -157 221 -128 m 526 872 q 554 839 540 858 q 580 799 568 819 q 601 757 592 778 q 615 719 610 736 q 628 662 624 696 q 639 582 633 628 l 682 515 l 718 582 q 709 622 715 600 q 693 665 703 643 q 673 706 683 688 q 654 738 663 725 q 603 806 632 768 q 526 872 575 843 m 693 450 l 653 397 l 693 343 l 731 397 l 693 450 m 510 -157 q 598 -84 558 -128 q 672 28 638 -40 q 708 120 694 71 q 725 206 721 169 l 689 272 l 646 206 q 642 127 646 169 q 628 42 638 85 q 608 -12 622 17 q 578 -69 594 -42 q 542 -120 561 -97 q 510 -157 524 -143 z "},"1":{"ha":694,"x_min":3,"x_max":574,"o":"m 3 725 l 265 971 l 383 971 l 383 -110 l 574 -229 l 35 -229 l 221 -118 l 221 790 l 3 725 m 265 192 l 306 -137 l 347 192 l 307 257 l 265 192 m 263 531 l 304 464 l 347 531 l 306 851 l 263 531 m 304 417 l 264 364 l 304 310 l 347 364 l 304 417 z "},"2":{"ha":832,"x_min":-3,"x_max":806,"o":"m 114 889 q 181 939 140 917 q 269 974 215 958 q 403 992 324 989 q 543 962 489 993 q 628 883 597 931 q 672 778 660 835 q 686 669 683 721 q 671 528 689 594 q 627 407 653 461 q 574 314 601 353 q 533 257 547 275 q 435 128 482 189 q 350 21 388 67 q 267 -81 306 -35 l 600 -81 l 806 68 l 688 -228 l 17 -228 q 99 -146 51 -197 q 198 -33 139 -101 q 335 138 257 36 q 442 299 403 225 q 503 433 482 374 q 531 535 524 492 q 538 603 538 578 q 532 684 539 642 q 508 763 525 726 q 459 824 490 800 q 381 850 428 849 q 321 844 346 851 q 281 831 296 838 q 249 810 261 821 q 121 694 176 744 q 74 651 97 672 q 35 615 51 631 q 8 589 18 599 q -1 579 -3 579 q 9 601 0 579 q 31 658 18 624 q 58 732 43 692 q 85 806 72 772 q 106 864 97 840 q 114 889 114 888 m 257 -114 l 174 -156 l 257 -196 l 604 -154 l 257 -114 m 294 910 q 393 909 344 913 q 479 881 442 906 q 525 832 510 861 q 557 765 540 803 l 621 721 l 625 790 q 600 832 615 811 q 567 870 585 853 q 533 900 550 888 q 501 918 515 913 q 411 933 465 931 q 294 910 357 935 m 614 665 l 574 613 l 614 558 l 657 613 l 614 665 z "},"3":{"ha":757,"x_min":1,"x_max":711,"o":"m 78 846 q 143 911 103 882 q 231 958 178 936 q 363 982 283 979 q 499 965 440 985 q 597 908 558 944 q 656 824 636 872 q 674 722 675 776 q 639 574 671 631 q 569 485 607 517 q 469 428 525 447 q 592 365 538 407 q 636 324 614 347 q 675 269 658 300 q 701 200 692 239 q 711 114 711 161 q 675 -65 710 4 q 589 -173 640 -133 q 477 -226 538 -212 q 363 -239 417 -240 q 241 -228 292 -237 q 154 -208 190 -219 q 83 -179 113 -196 l 1 60 l 218 -128 q 261 -139 238 -133 q 306 -147 281 -143 q 358 -149 331 -150 q 420 -133 386 -149 q 484 -86 454 -117 q 534 -9 514 -56 q 554 100 554 38 q 540 204 554 160 q 503 280 526 249 q 451 331 481 311 q 392 363 422 351 q 229 382 319 389 q 239 415 233 400 q 243 428 242 422 q 246 439 244 433 q 249 450 247 444 q 316 456 274 450 q 401 487 358 463 q 476 558 443 511 q 515 685 508 604 q 511 763 521 726 q 481 828 501 800 q 430 875 460 857 q 365 897 400 893 q 295 894 321 900 q 256 881 269 889 q 235 857 240 871 l 10 610 l 78 846 m 590 817 l 554 714 l 593 603 l 638 714 l 590 817 m 628 211 l 592 108 l 631 -3 l 675 108 l 628 211 z "},"4":{"ha":883,"x_min":1,"x_max":840,"o":"m 672 972 l 672 171 l 789 171 q 784 156 789 171 q 772 122 779 140 q 759 88 765 103 q 751 72 753 72 l 672 72 l 672 -132 l 840 -229 l 326 -229 l 513 -129 l 513 72 l 1 72 l 1 151 l 521 972 l 672 972 m 128 172 l 513 172 l 513 794 l 128 172 m 557 192 l 597 -137 l 639 192 l 599 257 l 557 192 m 554 531 l 596 464 l 639 531 l 597 851 l 554 531 m 596 417 l 556 364 l 596 310 l 639 364 l 596 417 z "},"5":{"ha":772,"x_min":0,"x_max":743,"o":"m 604 972 l 731 654 l 493 828 l 122 828 l 122 489 q 179 538 144 515 q 251 572 207 557 q 353 586 294 586 q 515 551 444 586 q 633 462 585 517 q 706 338 681 407 q 736 200 732 269 q 715 1 743 83 q 638 -135 686 -82 q 527 -212 589 -187 q 407 -239 465 -237 q 258 -232 321 -242 q 154 -210 196 -222 q 71 -175 106 -194 l 0 71 l 219 -132 q 258 -150 236 -143 q 303 -162 278 -157 q 363 -164 329 -167 q 448 -141 408 -161 q 517 -83 488 -121 q 563 12 546 -44 q 582 146 581 68 q 563 308 583 242 q 506 417 542 375 q 424 479 471 460 q 329 499 378 499 q 235 475 275 499 q 167 422 194 451 q 126 369 140 393 q 111 344 113 344 q 86 367 100 360 q 60 378 72 374 q 31 383 44 382 l 31 972 l 604 972 m 651 293 l 615 190 l 654 79 l 699 190 l 651 293 m 189 942 l 122 900 l 189 860 l 535 901 l 189 942 z "},"6":{"ha":861,"x_min":1,"x_max":826,"o":"m 499 668 l 571 839 q 542 871 558 857 q 503 892 526 882 q 443 903 479 901 q 364 885 407 903 q 283 820 321 868 q 222 688 246 772 q 200 471 197 604 q 208 478 199 469 q 238 499 218 486 q 283 528 257 513 q 341 558 310 544 q 408 579 372 571 q 481 586 443 588 q 607 556 544 583 q 718 478 669 528 q 797 357 767 428 q 826 199 826 286 q 796 18 826 100 q 713 -122 765 -64 q 590 -213 660 -181 q 439 -243 519 -246 q 281 -210 360 -242 q 140 -105 203 -178 q 40 88 78 -32 q 1 385 1 207 q 31 616 1 507 q 117 806 61 725 q 255 936 174 888 q 439 989 336 985 q 551 976 503 990 q 635 938 600 963 q 693 883 669 914 q 732 822 717 853 l 499 668 m 200 164 q 220 40 200 100 q 274 -66 240 -19 q 348 -140 307 -112 q 431 -168 389 -168 q 515 -140 474 -168 q 590 -66 557 -112 q 644 41 624 -19 q 664 165 664 101 q 642 290 664 229 q 587 397 621 350 q 510 474 553 444 q 426 503 468 503 q 343 474 383 503 q 271 397 303 444 q 219 288 239 349 q 200 164 200 226 m 297 896 q 243 861 268 881 q 197 820 218 842 q 158 778 175 799 q 132 742 142 758 q 113 708 124 729 q 94 662 103 686 q 77 614 85 638 q 67 572 69 590 l 99 506 l 150 572 q 153 610 153 594 q 156 642 154 626 q 160 676 157 658 q 174 724 164 694 q 193 764 179 740 q 224 813 207 788 q 261 860 242 838 q 297 896 281 882 m 43 390 l 86 335 l 129 390 l 86 443 l 43 390 m 282 -157 q 214 -74 247 -129 q 157 39 181 -18 q 142 121 142 79 q 143 199 143 163 l 94 265 l 58 199 q 67 156 61 181 q 81 103 72 131 q 101 49 90 76 q 126 1 113 22 q 191 -87 157 -47 q 282 -157 225 -128 m 736 296 l 693 193 l 739 82 l 792 193 l 736 296 z "},"7":{"ha":939,"x_min":0,"x_max":901,"o":"m 33 -228 l 681 894 l 236 894 l 0 681 l 118 972 l 901 972 l 218 -231 l 33 -228 m 526 553 l 522 476 l 594 508 l 732 842 l 526 553 m 433 392 l 436 322 l 499 346 l 499 417 l 433 392 m 186 -115 l 403 183 l 399 258 l 338 228 l 186 -115 z "},"8":{"ha":836,"x_min":-4,"x_max":808,"o":"m -4 107 q 10 209 -4 160 q 55 299 25 258 q 131 371 85 340 q 243 417 178 401 q 101 515 154 447 q 49 682 49 583 q 70 804 49 749 q 135 901 92 860 q 246 965 179 942 q 403 990 313 989 q 539 972 475 992 q 650 915 603 953 q 725 818 697 876 q 753 682 753 760 q 703 516 753 585 q 571 415 653 447 q 669 370 625 400 q 744 299 714 340 q 792 209 775 258 q 808 107 808 160 q 780 -30 808 33 q 699 -140 751 -93 q 571 -215 646 -187 q 403 -242 496 -242 q 228 -214 304 -242 q 101 -140 153 -186 q 22 -30 49 -93 q -4 107 -4 33 m 149 101 q 172 -12 149 40 q 231 -103 194 -65 q 313 -160 267 -140 q 406 -178 360 -181 q 495 -153 451 -176 q 574 -90 539 -129 q 631 -2 610 -51 q 653 101 653 47 q 631 205 653 156 q 574 290 610 254 q 495 348 539 326 q 406 369 451 369 q 311 349 357 369 q 229 292 265 328 q 171 207 193 256 q 149 101 149 158 m 200 675 q 215 588 200 629 q 256 515 229 546 q 322 466 283 483 q 406 449 360 449 q 484 467 447 449 q 547 516 521 485 q 589 588 574 547 q 604 675 604 629 q 589 766 604 722 q 547 844 574 810 q 483 899 519 878 q 404 919 447 919 q 319 899 357 919 q 254 844 281 878 q 214 766 228 810 q 200 675 200 722 m 724 211 l 688 108 l 726 -3 l 771 108 l 724 211 m 71 211 l 28 108 l 74 -3 l 118 108 l 71 211 m 674 788 l 638 685 l 676 574 l 721 685 l 674 788 m 118 790 l 82 688 l 121 576 l 165 688 l 118 790 z "},"9":{"ha":861,"x_min":-17,"x_max":824,"o":"m 217 76 l 144 -94 q 192 -133 163 -117 q 256 -160 217 -149 q 354 -169 296 -172 q 445 -149 397 -168 q 534 -80 493 -129 q 601 55 575 -31 q 625 274 626 140 q 604 257 626 275 q 542 216 582 239 q 451 174 503 193 q 344 158 400 156 q 217 188 279 160 q 107 267 156 217 q 28 388 58 317 q -1 546 -1 458 q 29 726 -1 643 q 113 867 60 808 q 235 957 165 925 q 386 988 306 989 q 543 954 465 986 q 683 849 621 922 q 785 656 746 776 q 824 360 824 536 q 790 128 824 236 q 694 -62 756 19 q 549 -192 633 -143 q 361 -244 464 -240 q 235 -233 296 -247 q 123 -194 174 -218 q 35 -139 72 -169 q -17 -78 -1 -108 l 217 76 m 625 581 q 605 704 625 644 q 551 810 585 764 q 477 885 518 857 q 394 913 436 913 q 310 885 351 913 q 235 810 268 857 q 181 703 201 764 q 161 579 161 643 q 183 455 161 515 q 238 347 204 394 q 315 271 272 300 q 399 242 357 242 q 482 271 442 242 q 554 348 522 300 q 606 457 586 396 q 625 581 625 518 m 528 -151 q 582 -117 557 -137 q 628 -76 607 -97 q 666 -34 650 -54 q 693 3 682 -14 q 712 37 701 15 q 731 83 722 58 q 748 131 740 107 q 758 172 756 154 l 726 239 l 675 172 q 672 133 672 149 q 669 102 671 118 q 665 68 668 86 q 651 21 661 50 q 632 -19 646 4 q 601 -68 618 -43 q 564 -115 583 -93 q 528 -151 544 -137 m 782 354 l 739 410 l 696 354 l 739 301 l 782 354 m 543 901 q 611 818 578 874 q 668 706 644 763 q 683 624 683 665 q 682 546 682 582 l 731 479 l 767 546 q 758 589 764 564 q 744 641 753 614 q 724 695 735 668 q 699 743 713 722 q 634 832 668 792 q 543 901 600 872 m 89 449 l 132 551 l 86 663 l 33 551 l 89 449 z "}," ":{"ha":417,"x_min":0,"x_max":0,"o":""}," ":{"ha":417,"x_min":0,"x_max":0,"o":""},"a":{"ha":725,"x_min":-1,"x_max":713,"o":"m 713 0 l 396 0 l 458 72 l 414 289 l 240 289 l 183 67 l 257 0 l -1 0 l 96 72 l 289 772 l 201 842 l 418 842 l 632 61 l 713 0 l 713 0 m 254 340 l 400 340 l 326 635 l 254 340 l 254 340 z "},"h":{"ha":607,"x_min":0,"x_max":590,"o":"m 531 792 l 531 63 l 585 0 l 321 0 l 386 63 l 386 389 l 206 389 l 206 58 l 267 0 l 7 0 l 63 58 l 63 785 l 0 840 l 257 840 l 206 781 l 206 450 l 386 450 l 386 785 l 329 840 l 590 840 l 531 792 z "},"i":{"ha":321,"x_min":1,"x_max":293,"o":"m 1 840 l 292 840 l 233 799 l 233 60 l 293 0 l 7 0 l 67 57 l 67 794 l 1 840 l 1 840 z "},"y":{"ha":578,"x_min":-4,"x_max":542,"o":"m -4 840 l 247 840 l 206 783 l 311 546 l 414 783 l 367 840 l 542 840 l 493 783 l 356 456 l 356 60 l 406 0 l 144 0 l 200 64 l 200 451 l 58 783 l -4 840 l -4 840 z "},"b":{"ha":583,"x_min":0,"x_max":569,"o":"m 339 433 q 456 404 404 428 q 499 379 478 394 q 535 342 519 364 q 560 292 550 321 q 568 228 569 264 q 506 72 564 125 q 428 28 475 43 q 336 7 381 14 q 228 0 283 0 l 0 0 l 93 56 l 93 778 l 15 840 l 281 840 q 340 833 301 840 q 415 806 378 826 q 481 745 453 785 q 513 639 510 706 q 488 531 514 571 q 428 469 461 492 q 339 433 389 444 m 235 464 q 319 479 283 463 q 350 498 335 486 q 376 528 365 510 q 394 573 388 547 q 399 633 400 599 q 370 726 396 694 q 314 771 344 757 q 235 788 278 786 l 235 464 m 422 233 q 403 315 424 283 q 357 365 382 346 q 313 388 335 381 q 272 397 290 394 q 232 399 251 400 l 232 56 q 264 57 247 54 q 297 64 279 60 q 333 79 314 68 q 393 134 365 97 q 422 233 421 171 z "},"o":{"ha":597,"x_min":0,"x_max":578,"o":"m 522 692 q 564 567 550 638 q 578 421 578 497 q 572 331 578 376 q 556 244 567 286 q 531 164 546 201 q 497 97 515 126 q 404 10 458 35 q 289 -15 350 -15 q 169 17 228 -15 q 71 110 111 49 q 15 249 31 168 q 0 421 0 331 q 13 573 0 501 q 58 703 26 644 q 159 819 99 776 q 289 861 219 861 q 421 816 360 861 q 522 692 482 771 m 288 46 q 344 75 318 46 q 388 154 369 104 q 418 273 407 204 q 429 421 429 342 q 418 570 429 501 q 388 690 407 639 q 342 771 368 742 q 286 800 317 800 q 230 771 257 800 q 183 690 203 742 q 152 570 164 639 q 140 421 140 501 q 152 273 140 342 q 184 154 164 204 q 231 75 204 104 q 288 46 258 46 z "},"x":{"ha":675,"x_min":-14,"x_max":665,"o":"m -14 840 l 249 840 l 211 797 l 326 565 l 438 794 l 399 840 l 593 840 l 528 794 l 371 478 l 585 57 l 665 0 l 344 0 l 418 50 l 286 322 l 169 57 l 229 0 l 0 0 l 79 57 l 242 415 l 57 788 l -14 840 l -14 840 z "},"n":{"ha":568,"x_min":0,"x_max":553,"o":"m 0 0 l 69 58 l 69 782 l 0 840 l 164 840 l 418 364 l 418 793 l 360 840 l 553 840 l 508 799 l 508 0 l 418 0 l 164 513 l 164 61 l 224 0 l 0 0 l 0 0 z "},"f":{"ha":521,"x_min":1,"x_max":489,"o":"m 1 840 l 489 840 l 489 543 l 388 794 l 222 794 l 222 458 l 321 458 l 388 558 l 388 307 l 324 400 l 222 400 l 222 57 l 289 0 l 1 0 l 63 53 l 63 786 l 1 840 z "},"p":{"ha":526,"x_min":0,"x_max":514,"o":"m 235 464 q 319 479 283 463 q 350 498 335 486 q 376 528 365 510 q 394 573 388 547 q 399 633 400 599 q 370 726 396 694 q 314 771 344 757 q 235 788 278 786 l 235 464 m 0 0 l 93 56 l 93 778 l 15 840 l 281 840 q 340 833 301 840 q 417 806 379 826 q 483 745 454 785 q 513 639 511 706 q 499 540 514 581 q 459 474 483 500 q 403 433 435 447 q 340 412 371 418 q 280 404 308 406 q 232 404 251 403 l 232 56 l 324 0 l 0 0 z "},"r":{"ha":647,"x_min":0,"x_max":622,"o":"m 0 0 l 93 56 l 93 778 l 15 840 l 281 840 q 340 833 301 840 q 417 806 379 826 q 483 745 454 785 q 513 639 511 706 q 497 531 514 575 q 455 460 479 488 q 403 421 431 433 q 360 408 376 408 l 549 57 l 622 0 l 408 0 l 232 364 l 232 56 l 324 0 l 0 0 m 235 464 q 319 479 283 463 q 350 498 335 486 q 376 528 365 510 q 394 573 388 547 q 399 633 400 599 q 370 726 396 694 q 314 771 344 757 q 235 788 278 786 l 235 464 z "},"u":{"ha":557,"x_min":0,"x_max":540,"o":"m 275 840 l 219 788 l 219 224 q 226 150 219 182 q 249 100 233 122 q 296 78 264 78 q 352 101 333 78 q 378 154 371 125 q 386 232 386 189 l 386 786 l 335 840 l 540 840 l 485 788 l 485 239 q 465 119 486 172 q 442 76 457 97 q 403 38 426 54 q 349 10 381 21 q 275 0 318 0 q 200 10 232 0 q 145 38 168 21 q 107 76 122 54 q 83 121 92 97 q 64 243 61 175 l 64 785 l 0 840 l 275 840 z "},"H":{"ha":1074,"x_min":-1,"x_max":1074,"o":"m 926 874 l 926 -115 l 1074 -229 l 626 -229 l 772 -118 l 772 331 l 325 331 l 325 -129 l 483 -229 l -1 -229 l 164 -129 l 164 874 l -1 972 l 482 972 l 325 874 l 325 408 l 772 408 l 772 874 l 625 972 l 1072 972 l 926 874 m 208 192 l 244 -137 l 288 192 l 249 257 l 208 192 m 206 531 l 247 464 l 288 531 l 246 851 l 206 531 m 247 417 l 207 364 l 247 310 l 285 364 l 247 417 m 810 192 l 846 -137 l 889 192 l 850 257 l 810 192 m 807 531 l 849 464 l 889 531 l 847 851 l 807 531 m 849 417 l 808 364 l 849 310 l 886 364 l 849 417 z "},"I":{"ha":493,"x_min":-1,"x_max":492,"o":"m 333 -129 l 492 -229 l -1 -229 l 164 -129 l 164 874 l -1 972 l 490 972 l 333 874 l 333 -129 m 208 192 l 249 -137 l 290 192 l 250 257 l 208 192 m 206 531 l 247 464 l 290 531 l 249 851 l 206 531 m 247 417 l 207 364 l 247 310 l 290 364 l 247 417 z "},"L":{"ha":854,"x_min":1,"x_max":853,"o":"m 1 -229 l 149 -156 l 149 874 l 1 972 l 432 972 l 307 874 l 307 -151 l 622 -151 l 853 57 l 763 -229 l 1 -229 m 190 192 l 231 -137 l 272 192 l 232 257 l 190 192 m 188 531 l 229 464 l 272 531 l 231 851 l 188 531 m 229 417 l 189 364 l 229 310 l 272 364 l 229 417 z "},"A":{"ha":1108,"x_min":-1,"x_max":1108,"o":"m 633 -229 l 764 -126 l 660 331 l 385 331 l 264 -133 l 404 -229 l -1 -229 l 165 -131 l 443 874 l 236 972 l 660 972 l 949 -126 l 1108 -229 l 633 -229 m 642 408 l 532 857 l 410 408 l 642 408 m 738 194 l 853 -117 l 814 214 l 761 268 l 738 194 m 654 522 l 711 468 l 733 542 l 615 843 l 654 522 m 722 422 l 696 361 l 747 318 l 771 379 l 722 422 z "},"N":{"ha":1021,"x_min":3,"x_max":1018,"o":"m 24 -229 l 196 -125 l 196 872 l 3 972 l 281 972 l 813 211 l 813 874 l 679 972 l 1018 972 l 903 874 l 903 -265 l 296 675 l 296 -126 l 435 -229 l 24 -229 m 632 254 l 846 0 l 699 299 l 631 332 l 632 254 m 444 535 l 515 503 l 513 581 l 300 825 l 444 535 m 542 464 l 538 397 l 600 374 l 601 439 l 542 464 z "},"E":{"ha":899,"x_min":0,"x_max":871,"o":"m 0 972 l 793 972 l 869 688 l 672 894 l 307 894 l 307 408 l 553 408 l 649 594 l 649 149 l 556 331 l 307 331 l 307 -139 l 682 -139 l 871 50 l 793 -229 l 3 -229 l 142 -135 l 142 874 l 0 972 m 185 207 l 221 -122 l 264 207 l 225 272 l 185 207 m 182 546 l 224 479 l 264 546 l 222 867 l 182 546 m 224 432 l 183 379 l 224 325 l 261 379 l 224 432 z "},"F":{"ha":854,"x_min":0,"x_max":851,"o":"m 0 972 l 793 972 l 851 688 l 672 894 l 307 894 l 307 408 l 553 408 l 649 594 l 649 149 l 556 331 l 307 331 l 307 -139 l 442 -229 l 3 -229 l 142 -135 l 142 874 l 0 972 m 185 207 l 221 -122 l 264 207 l 225 272 l 185 207 m 182 546 l 224 479 l 264 546 l 222 867 l 182 546 m 224 432 l 183 379 l 224 325 l 261 379 l 224 432 z "},"t":{"ha":493,"x_min":0,"x_max":483,"o":"m 0 550 l 0 840 l 483 840 l 483 547 l 388 776 l 322 776 l 322 57 l 383 0 l 103 0 l 165 54 l 165 776 l 92 776 l 0 550 z "},"z":{"ha":496,"x_min":0,"x_max":467,"o":"m 363 58 l 467 381 l 467 0 l 0 0 l 290 786 l 115 786 l 0 542 l 0 840 l 467 840 l 174 58 l 363 58 z "},"T":{"ha":1153,"x_min":4,"x_max":1153,"o":"m 4 700 l 139 972 l 1035 972 l 1153 700 l 908 893 l 667 893 l 667 -136 l 806 -229 l 358 -229 l 504 -139 l 504 893 l 249 893 l 4 700 m 547 221 l 583 -108 l 626 221 l 588 286 l 547 221 m 544 560 l 586 493 l 626 560 l 585 881 l 544 560 m 586 446 l 546 393 l 586 339 l 624 393 l 586 446 z "},"c":{"ha":490,"x_min":0,"x_max":464,"o":"m 464 365 l 464 39 q 407 11 436 24 q 351 -8 382 0 q 289 -15 319 -15 q 169 16 226 -15 q 71 110 111 47 q 15 249 31 168 q 0 421 0 331 q 13 574 0 503 q 58 703 26 644 q 159 816 99 775 q 289 861 219 857 q 377 857 343 864 q 431 840 411 850 q 464 813 453 828 l 464 525 l 340 792 q 286 799 322 803 q 229 766 256 796 q 183 686 203 736 q 151 569 163 636 q 140 421 140 501 q 152 273 140 342 q 184 153 164 204 q 231 74 204 103 q 288 46 257 46 q 315 52 300 46 q 340 68 331 58 l 464 365 z "},"m":{"ha":829,"x_min":0,"x_max":808,"o":"m 0 0 l 69 58 l 69 782 l 0 840 l 226 840 l 404 360 l 597 840 l 808 840 l 736 782 l 736 56 l 803 0 l 508 0 l 582 56 l 582 604 l 369 0 l 164 604 l 164 61 l 224 0 l 0 0 z "},"k":{"ha":650,"x_min":0,"x_max":640,"o":"m 211 56 l 271 0 l 0 0 l 69 58 l 69 793 l 3 840 l 271 840 l 211 793 l 211 521 l 390 794 l 351 840 l 540 840 l 475 794 l 276 485 l 560 57 l 640 0 l 315 0 l 389 50 l 211 331 l 211 56 z "},"q":{"ha":694,"x_min":-29,"x_max":769,"o":"m -29 -67 q -10 -17 -26 -39 q 27 19 6 4 q 74 41 49 33 q 124 50 100 49 q 95 77 108 63 q 71 110 82 92 q 15 249 31 168 q 0 421 0 331 q 13 573 0 501 q 58 703 26 644 q 159 819 99 776 q 289 861 219 861 q 421 816 360 861 q 522 692 482 771 q 564 567 550 638 q 578 421 578 497 q 572 331 578 376 q 556 244 567 286 q 531 164 546 201 q 497 97 515 126 q 453 44 478 65 q 400 8 428 22 q 444 -28 419 -12 q 493 -53 469 -43 q 546 -72 518 -65 l 769 -19 l 565 -187 q 517 -190 539 -192 q 477 -184 494 -189 q 447 -173 460 -179 q 428 -162 435 -167 q 358 -110 388 -137 q 298 -59 329 -82 q 228 -22 267 -36 q 131 -11 189 -8 q 49 -31 90 -14 q -11 -92 8 -47 l -29 -67 m 140 421 q 149 295 140 354 q 172 188 157 236 q 206 106 186 140 q 250 57 226 72 q 306 49 278 56 q 355 89 332 57 q 394 170 378 121 q 420 283 411 219 q 429 421 429 347 q 418 570 429 501 q 388 690 407 639 q 342 771 368 742 q 286 800 317 800 q 230 771 257 800 q 183 690 203 742 q 152 570 164 639 q 140 421 140 501 z "},"j":{"ha":422,"x_min":0,"x_max":411,"o":"m 411 840 l 347 785 l 347 243 q 326 121 347 175 q 302 76 317 97 q 265 37 288 54 q 210 10 242 19 q 136 0 179 0 q 69 11 96 0 q 28 35 43 22 q 0 68 10 50 l 33 104 q 50 89 39 94 q 76 79 60 83 q 115 78 92 75 q 162 103 146 81 q 185 153 178 125 q 192 224 192 185 l 192 788 l 125 840 l 411 840 z "},"v":{"ha":635,"x_min":0,"x_max":618,"o":"m 0 840 l 281 840 l 218 783 l 343 328 l 450 785 l 372 840 l 618 840 l 538 783 l 346 0 l 282 0 l 68 783 l 0 840 z "},"w":{"ha":1018,"x_min":0,"x_max":1000,"o":"m 0 840 l 281 840 l 218 783 l 343 328 l 450 783 l 372 840 l 663 840 l 600 783 l 725 328 l 832 785 l 754 840 l 1000 840 l 919 783 l 728 0 l 664 0 l 496 614 l 346 0 l 282 0 l 68 783 l 0 840 z "},"g":{"ha":540,"x_min":0,"x_max":517,"o":"m 517 385 l 464 326 l 464 39 q 407 11 436 24 q 351 -8 382 0 q 289 -15 319 -15 q 169 16 226 -15 q 71 110 111 47 q 15 249 31 168 q 0 421 0 331 q 13 574 0 503 q 58 703 26 644 q 159 816 99 775 q 289 861 219 857 q 377 857 343 864 q 431 840 411 850 q 464 813 453 828 l 464 543 l 340 792 q 286 799 322 803 q 229 766 256 796 q 183 686 203 736 q 151 569 163 636 q 140 421 140 501 q 152 273 140 342 q 184 153 164 204 q 231 74 204 103 q 288 46 257 46 q 315 52 300 46 q 340 68 331 58 l 340 325 l 286 385 l 517 385 z "},"s":{"ha":500,"x_min":15,"x_max":471,"o":"m 321 767 q 267 785 293 779 q 217 783 243 788 q 169 753 192 778 q 142 684 138 717 q 172 617 146 651 q 241 545 199 582 q 329 465 283 508 q 410 379 381 417 q 453 309 440 342 q 469 245 467 276 q 469 176 471 214 q 442 83 467 118 q 382 30 417 49 q 310 5 347 11 q 246 -1 274 -1 q 142 5 183 -3 q 76 22 100 13 q 33 47 49 33 l 33 368 l 142 86 q 176 65 157 72 q 216 55 193 58 q 267 58 239 51 q 308 78 293 64 q 331 113 324 93 q 338 157 339 133 q 332 206 338 181 q 284 290 321 254 q 206 363 247 326 q 145 415 172 390 q 96 463 118 439 q 58 510 74 486 q 35 561 43 533 q 26 678 15 625 q 67 769 36 732 q 143 828 97 807 q 240 849 189 849 q 328 842 292 849 q 389 828 365 836 q 436 806 417 818 l 436 519 l 321 767 z "},"B":{"ha":899,"x_min":0,"x_max":854,"o":"m 526 390 q 693 349 619 383 q 753 312 724 333 q 806 260 783 290 q 841 190 828 231 q 853 97 854 149 q 828 -32 850 22 q 764 -125 806 -86 q 653 -187 719 -165 q 522 -218 586 -208 q 368 -229 447 -229 l 0 -229 l 174 -137 l 174 874 l 10 972 l 443 972 q 494 968 463 972 q 563 953 526 964 q 635 922 599 942 q 701 871 671 903 q 751 793 732 839 q 774 683 771 747 q 765 597 775 635 q 739 530 756 560 q 700 478 722 500 q 654 440 678 456 q 526 390 599 404 m 338 435 q 490 457 424 432 q 546 484 519 467 q 593 528 572 501 q 625 591 614 554 q 635 678 636 628 q 619 753 632 721 q 584 808 606 785 q 536 848 563 832 q 482 874 510 864 q 338 897 417 897 l 338 435 m 701 110 q 657 228 696 181 q 560 314 618 276 q 492 337 531 331 q 418 344 454 343 q 333 342 376 346 l 333 -149 q 417 -146 375 -150 q 491 -137 453 -143 q 558 -115 529 -131 q 617 -81 589 -100 q 665 -35 644 -61 q 695 26 685 -8 q 701 106 706 60 l 701 110 m 217 201 l 253 -128 l 296 201 l 257 267 l 217 201 m 214 540 l 256 474 l 296 540 l 254 861 l 214 540 m 256 426 l 215 374 l 256 319 l 293 374 l 256 426 m 696 779 l 660 676 l 699 565 l 743 676 l 696 779 m 768 219 l 732 100 l 771 -35 l 815 100 l 768 219 z "},"D":{"ha":849,"x_min":0,"x_max":831,"o":"m 821 426 q 781 100 831 244 q 722 -20 760 39 q 626 -126 685 -79 q 485 -201 568 -172 q 290 -229 403 -229 l 6 -229 l 111 -143 l 111 883 l 0 972 l 269 972 q 539 917 419 972 q 640 854 590 893 q 728 756 689 815 q 792 616 767 697 q 821 426 818 535 m 463 -119 q 523 -77 488 -106 q 591 9 558 -49 q 646 161 624 67 q 664 401 668 256 q 638 613 664 515 q 608 695 626 654 q 560 773 589 736 q 492 838 532 810 q 400 881 453 865 q 372 885 390 883 q 335 887 354 886 q 299 888 317 888 q 271 888 281 888 l 271 -140 q 351 -139 314 -142 q 415 -133 383 -136 q 463 -119 447 -129 m 149 201 l 185 -128 l 228 201 l 189 267 l 149 201 m 146 540 l 188 474 l 228 540 l 186 861 l 146 540 m 188 426 l 147 374 l 188 319 l 225 374 l 188 426 m 556 853 q 586 819 569 839 q 618 779 603 800 q 645 738 633 758 q 663 700 657 717 q 678 642 671 676 q 692 563 686 608 l 735 496 l 771 563 q 760 602 768 581 q 742 646 753 624 q 721 687 732 668 q 701 718 710 706 q 642 786 679 749 q 556 853 604 824 m 744 449 l 704 396 l 744 342 l 782 396 l 744 449 m 563 -107 q 646 -37 611 -78 q 708 47 681 4 q 753 135 735 88 q 776 219 772 183 l 740 286 l 697 219 q 694 151 697 183 q 674 69 690 118 q 624 -29 657 21 q 563 -107 592 -79 z "},"K":{"ha":993,"x_min":-42,"x_max":968,"o":"m 258 -135 l 389 -229 l -42 -229 l 100 -129 l 100 893 l -29 975 l 378 975 l 258 893 l 258 469 l 600 893 l 506 975 l 847 975 l 704 893 l 365 467 l 833 -132 l 968 -229 l 514 -229 l 646 -142 l 258 347 l 258 -135 m 143 201 l 179 -128 l 222 201 l 183 267 l 143 201 m 140 540 l 182 474 l 222 540 l 181 861 l 140 540 m 182 426 l 142 374 l 182 319 l 219 374 l 182 426 m 343 310 l 707 -87 l 406 358 l 317 408 l 343 310 z "},"M":{"ha":1329,"x_min":-4,"x_max":1306,"o":"m -3 -229 l 136 -144 l 136 888 l -4 972 l 281 972 l 653 108 l 1026 972 l 1306 972 l 1154 888 l 1154 -150 l 1297 -229 l 856 -229 l 988 -150 l 988 636 l 594 -229 l 244 636 l 244 -142 l 369 -229 l -3 -229 m 1036 192 l 1076 -137 l 1118 192 l 1078 257 l 1036 192 m 1033 531 l 1075 464 l 1118 531 l 1076 851 l 1033 531 m 1075 417 l 1035 364 l 1075 310 l 1118 364 l 1075 417 m 460 239 l 621 -53 l 533 267 l 474 314 l 460 239 m 328 550 l 393 503 l 404 579 l 240 860 l 328 550 m 411 460 l 393 396 l 451 361 l 465 424 l 411 460 z "},"P":{"ha":782,"x_min":-3,"x_max":767,"o":"m 313 425 q 476 451 404 425 q 536 481 507 463 q 587 526 565 499 q 621 590 608 553 q 632 676 633 626 q 615 752 629 719 q 577 808 600 785 q 526 848 554 832 q 468 874 497 864 q 313 897 399 897 l 313 425 m -1 -229 l 150 -143 l 150 883 l -3 972 l 396 972 q 450 968 415 972 q 526 953 485 964 q 608 922 567 942 q 684 871 650 903 q 740 793 718 839 q 764 683 763 747 q 741 543 767 600 q 674 449 715 486 q 582 390 633 411 q 480 360 531 369 q 384 349 429 350 q 311 349 339 347 l 311 -143 l 464 -229 l -1 -229 m 190 208 l 231 -121 l 272 208 l 232 274 l 190 208 m 188 547 l 229 481 l 272 547 l 231 868 l 188 547 m 229 433 l 189 381 l 229 326 l 272 381 l 229 433 m 693 774 l 657 671 l 696 560 l 740 671 l 693 774 z "},"R":{"ha":1053,"x_min":-3,"x_max":1033,"o":"m 6 -229 l 163 -139 l 163 867 l -3 972 l 467 972 q 518 968 486 972 q 586 953 550 964 q 660 922 622 942 q 727 871 697 903 q 776 793 757 839 q 799 683 796 747 q 782 563 801 614 q 730 478 763 513 q 658 421 697 443 q 580 387 618 399 q 510 371 542 375 q 461 367 478 367 l 857 -135 l 1033 -229 l 710 -229 l 322 290 l 322 -139 l 479 -229 l 6 -229 m 328 435 q 500 457 425 432 q 562 484 532 467 q 615 528 592 501 q 650 590 638 554 q 660 676 663 626 q 641 759 657 724 q 601 819 625 794 q 547 859 576 843 q 488 883 518 875 q 328 897 417 904 l 328 435 m 206 208 l 246 -121 l 288 208 l 247 274 l 206 208 m 203 547 l 244 481 l 288 547 l 246 868 l 203 547 m 244 433 l 204 381 l 244 326 l 288 381 l 244 433 m 399 256 l 744 -119 l 463 304 l 374 351 l 399 256 m 721 774 l 685 671 l 724 560 l 768 671 l 721 774 z "},"V":{"ha":1043,"x_min":-4,"x_max":1031,"o":"m -4 975 l 451 974 l 314 890 l 578 65 l 772 889 l 626 975 l 1031 975 l 874 888 l 599 -229 l 507 -229 l 142 886 l -4 975 m 404 225 l 544 -76 l 479 250 l 422 300 l 404 225 m 294 544 l 356 494 l 371 571 l 229 861 l 294 544 m 369 450 l 349 388 l 404 349 l 422 411 l 369 450 z "},"W":{"ha":1583,"x_min":-36,"x_max":1611,"o":"m -36 972 l 443 972 l 279 892 l 533 75 l 746 892 l 606 972 l 1038 972 l 890 892 l 1142 104 l 1342 893 l 1193 972 l 1611 972 l 1449 892 l 1146 -229 l 1051 -229 l 785 676 l 544 -229 l 444 -229 l 107 892 l -36 972 m 353 225 l 482 -82 l 428 247 l 374 299 l 353 225 m 254 547 l 314 496 l 332 571 l 200 867 l 254 547 m 326 450 l 303 389 l 357 349 l 376 410 l 326 450 m 971 225 l 1100 -82 l 1046 247 l 992 299 l 971 225 m 872 547 l 932 496 l 950 571 l 818 867 l 872 547 m 944 450 l 921 389 l 975 349 l 994 410 l 944 450 z "},"X":{"ha":1068,"x_min":-6,"x_max":1050,"o":"m 8 975 l 428 975 l 321 893 l 506 557 l 688 894 l 586 972 l 928 972 l 781 894 l 553 472 l 879 -142 l 1050 -229 l 538 -229 l 693 -146 l 474 313 l 256 -133 l 401 -229 l -6 -229 l 160 -133 l 424 386 l 157 892 l 8 975 m 569 204 l 789 -129 l 639 242 l 574 281 l 569 204 m 408 500 l 476 461 l 478 539 l 251 867 l 408 500 m 497 419 l 488 354 l 549 325 l 556 390 l 497 419 z "},"Y":{"ha":921,"x_min":-39,"x_max":903,"o":"m 343 975 l 240 894 l 472 492 l 690 894 l 582 975 l 903 975 l 783 894 l 513 403 l 513 -133 l 639 -229 l 219 -229 l 361 -129 l 361 397 l 85 894 l -39 975 l 343 975 m 399 210 l 446 -167 l 481 210 l 440 275 l 399 210 m 319 533 l 386 492 l 390 568 l 172 874 l 319 533 m 438 440 l 397 388 l 438 333 l 481 388 l 438 440 z "},"U":{"ha":1015,"x_min":-1,"x_max":992,"o":"m 450 975 l 318 894 l 318 92 q 344 -26 319 25 q 371 -70 354 -49 q 413 -108 388 -92 q 472 -135 438 -125 q 553 -144 507 -144 q 626 -134 594 -144 q 679 -106 657 -124 q 716 -67 701 -89 q 740 -21 731 -44 q 763 104 763 35 l 763 892 l 646 975 l 992 975 l 867 894 l 867 114 q 833 -58 869 18 q 794 -122 818 -90 q 732 -176 769 -153 q 643 -215 694 -200 q 524 -229 592 -229 q 388 -214 446 -229 q 289 -174 331 -199 q 219 -119 247 -150 q 174 -54 190 -87 q 133 119 133 22 l 133 890 l -1 975 l 450 975 m 186 561 l 228 494 l 268 561 l 226 882 l 186 561 m 228 447 l 188 394 l 228 340 l 265 394 l 228 447 m 333 -119 q 286 -35 301 -81 q 264 60 271 10 q 262 134 258 97 q 265 207 265 171 l 225 274 l 186 207 q 193 110 186 151 q 215 32 200 68 q 265 -56 235 -15 q 333 -119 296 -96 z "},"S":{"ha":760,"x_min":-40,"x_max":722,"o":"m 506 886 q 401 904 451 899 q 315 903 358 908 q 244 874 271 897 q 199 773 192 824 q 249 668 206 722 q 358 556 292 614 q 493 433 425 497 q 615 303 569 363 q 684 191 660 243 q 715 94 708 139 q 721 8 721 49 q 680 -128 719 -76 q 585 -207 640 -179 q 469 -244 529 -235 q 368 -253 410 -253 q 217 -242 276 -254 q 121 -217 157 -231 q 57 -181 79 -201 l -40 94 l 194 -129 q 251 -158 219 -147 q 315 -173 279 -168 q 393 -169 351 -178 q 464 -149 432 -161 q 519 -113 496 -136 q 556 -54 543 -90 q 568 38 568 -18 q 543 119 568 75 q 483 206 518 163 q 407 290 447 250 q 336 356 367 329 q 233 438 288 396 q 130 528 178 481 q 50 633 82 576 q 17 760 18 689 q 41 853 15 810 q 113 930 67 897 q 222 981 158 963 q 360 1000 285 1000 q 490 990 435 1000 q 581 968 544 981 q 650 935 622 953 l 722 688 l 506 886 m 101 826 q 115 717 103 769 q 143 632 128 665 q 160 599 149 618 q 185 560 171 579 q 214 522 199 540 q 244 493 229 504 l 319 492 l 283 561 q 220 613 246 589 q 178 656 194 638 q 154 690 167 669 q 131 735 142 711 q 113 783 121 758 q 101 826 106 807 m 372 443 l 383 378 l 450 368 l 438 433 l 372 443 m 647 -74 q 654 36 660 -18 q 638 139 649 90 q 605 233 626 186 q 560 307 583 279 l 488 328 l 506 250 q 552 199 531 225 q 597 129 574 174 q 618 78 608 106 q 634 24 628 51 q 644 -28 640 -3 q 647 -74 647 -54 z "},"C":{"ha":882,"x_min":0,"x_max":849,"o":"m 844 65 l 761 -161 q 686 -199 731 -182 q 594 -226 649 -214 q 465 -237 539 -237 q 367 -226 417 -237 q 272 -194 318 -215 q 183 -139 225 -172 q 110 -62 142 -106 q 24 131 49 17 q 0 371 0 246 q 21 583 0 483 q 90 764 42 682 q 164 854 121 814 q 256 922 207 894 q 358 965 304 950 q 465 983 411 981 q 615 976 557 986 q 704 953 672 967 q 761 917 742 938 l 849 767 l 615 890 q 563 901 599 899 q 500 903 528 904 q 392 874 449 901 q 288 785 336 847 q 209 622 240 724 q 178 371 178 521 q 206 131 176 233 q 283 -40 236 28 q 390 -139 331 -107 q 508 -167 450 -171 q 541 -162 524 -165 q 575 -153 558 -158 q 605 -141 592 -147 q 626 -128 618 -135 l 844 65 m 283 872 q 197 806 235 843 q 138 738 160 768 q 118 706 129 725 q 97 665 107 688 q 78 622 86 643 q 68 582 69 600 l 104 515 l 147 582 q 160 662 153 628 q 176 719 168 696 q 194 757 182 736 q 221 799 206 778 q 252 839 236 819 q 283 872 268 858 m 56 397 l 93 343 l 133 397 l 93 450 l 56 397 m 275 -121 q 213 -43 246 -93 q 164 56 181 7 q 144 137 147 104 q 140 206 140 169 l 97 272 l 61 206 q 84 122 65 169 q 129 33 103 74 q 192 -51 157 -10 q 275 -121 226 -92 z "},"G":{"ha":1060,"x_min":0,"x_max":1043,"o":"m 1043 336 l 879 242 l 879 -150 q 792 -197 844 -176 q 678 -229 747 -215 q 513 -243 608 -243 q 277 -194 375 -243 q 118 -61 179 -144 q 28 134 57 22 q 0 371 0 246 q 32 601 0 492 q 128 794 64 710 q 288 931 192 879 q 513 989 385 982 q 667 983 608 993 q 761 960 726 974 q 821 921 801 944 l 882 671 l 643 904 q 617 910 633 908 q 581 913 600 913 q 541 914 561 914 q 506 913 521 914 q 372 865 431 908 q 272 750 313 822 q 208 581 231 678 q 186 371 186 483 q 208 163 186 258 q 269 -5 229 67 q 369 -119 310 -76 q 507 -168 429 -162 q 567 -172 543 -171 q 613 -168 592 -172 q 659 -153 635 -164 q 719 -118 683 -142 l 719 240 l 549 336 l 1043 336 m 292 860 q 206 793 243 831 q 146 725 168 756 q 126 694 138 713 q 105 653 115 675 q 86 609 94 631 q 76 569 78 588 l 113 503 l 156 569 q 169 649 161 615 q 185 707 176 683 q 202 744 190 724 q 229 786 214 765 q 260 826 244 807 q 292 860 276 846 m 56 388 l 93 333 l 133 388 l 93 440 l 56 388 m 283 -129 q 222 -51 254 -101 q 172 47 189 -1 q 152 128 156 96 q 149 197 149 161 l 106 264 l 69 197 q 92 113 74 161 q 138 25 111 65 q 200 -59 165 -18 q 283 -129 235 -100 m 757 -49 l 799 -115 l 839 -49 l 797 272 l 757 -49 z "},"O":{"ha":1054,"x_min":0,"x_max":983,"o":"m 889 750 q 958 577 933 675 q 983 371 983 479 q 974 247 983 310 q 946 124 964 183 q 902 13 928 65 q 846 -81 876 -40 q 687 -203 779 -168 q 492 -239 594 -239 q 289 -194 388 -239 q 119 -64 190 -149 q 26 131 53 18 q 0 371 0 244 q 22 585 0 483 q 100 765 44 686 q 176 858 133 817 q 270 928 219 899 q 377 972 321 957 q 492 988 433 988 q 716 924 613 988 q 889 750 819 861 m 490 -164 q 628 -120 569 -162 q 725 -6 686 -78 q 783 163 764 67 q 803 371 803 260 q 782 582 803 483 q 720 755 761 681 q 620 872 679 829 q 486 913 561 914 q 358 868 415 911 q 260 752 300 825 q 197 581 219 679 q 175 371 175 483 q 197 163 175 260 q 258 -8 218 65 q 358 -123 299 -81 q 490 -164 417 -165 m 282 860 q 196 793 233 831 q 136 725 158 756 q 117 694 128 713 q 95 653 106 675 q 76 609 85 631 q 67 569 68 588 l 103 503 l 146 569 q 159 649 151 615 q 175 707 167 683 q 192 744 181 724 q 219 786 204 765 q 251 826 235 807 q 282 860 267 846 m 46 388 l 83 333 l 124 388 l 83 440 l 46 388 m 274 -129 q 212 -51 244 -101 q 163 47 179 -1 q 142 128 146 96 q 139 197 139 161 l 96 264 l 60 197 q 83 113 64 161 q 128 25 101 65 q 190 -59 156 -18 q 274 -129 225 -100 m 696 860 q 726 826 710 846 q 758 786 743 807 q 785 744 774 765 q 803 707 797 724 q 819 649 811 683 q 832 569 826 615 l 875 503 l 911 569 q 901 609 908 588 q 883 653 893 631 q 861 694 872 675 q 842 725 850 713 q 782 793 819 756 q 696 860 744 831 m 894 440 l 854 388 l 894 333 l 932 388 l 894 440 m 704 -129 q 788 -59 753 -100 q 850 25 822 -18 q 895 113 876 65 q 918 197 914 161 l 882 264 l 839 197 q 835 128 839 161 q 815 47 832 96 q 766 -51 799 -1 q 704 -129 733 -101 z "},"J":{"ha":717,"x_min":-10,"x_max":699,"o":"m 3 -110 q 12 -21 -10 -57 q 86 17 33 15 q 120 9 104 17 q 148 -12 136 1 q 164 -44 160 -26 q 161 -83 168 -62 q 162 -142 150 -119 q 221 -167 174 -165 q 259 -157 242 -167 q 290 -130 276 -147 q 313 -90 303 -112 q 329 -44 322 -68 q 353 81 344 11 l 353 885 l 196 972 l 699 972 l 528 882 l 528 108 q 499 -67 529 10 q 465 -131 486 -100 q 410 -187 443 -162 q 331 -226 376 -211 q 224 -242 285 -242 q 131 -228 169 -242 q 67 -194 93 -214 q 25 -151 40 -174 q 3 -110 10 -128 m 338 -151 q 406 -87 375 -128 q 456 0 436 -47 q 478 78 471 36 q 485 175 485 119 l 446 242 l 406 175 q 409 102 406 139 q 407 28 413 65 q 385 -67 400 -22 q 338 -151 369 -112 m 444 850 l 403 529 l 443 463 l 485 529 l 444 850 m 406 363 l 443 308 l 483 363 l 443 415 l 406 363 z "},"Q":{"ha":1076,"x_min":-17,"x_max":1068,"o":"m -17 -404 q 44 -312 10 -351 q 119 -247 79 -274 q 199 -207 158 -221 q 279 -189 240 -193 q 194 -135 235 -165 q 119 -64 153 -104 q 26 131 53 18 q 0 371 0 244 q 22 585 0 483 q 100 765 44 686 q 176 858 133 817 q 270 928 219 899 q 377 972 321 957 q 492 988 433 988 q 716 924 613 988 q 889 750 819 861 q 958 577 933 675 q 983 371 983 479 q 974 247 983 310 q 946 124 964 183 q 902 13 928 65 q 846 -81 876 -40 q 759 -166 804 -135 q 653 -214 714 -197 q 709 -233 686 -221 q 760 -261 732 -246 q 804 -278 782 -272 q 846 -285 826 -283 q 888 -285 868 -287 l 1068 -139 q 1021 -239 1043 -190 q 981 -326 1001 -281 q 947 -406 961 -372 q 828 -401 878 -414 q 732 -367 778 -389 q 636 -320 686 -346 q 517 -276 586 -294 q 378 -262 451 -260 q 235 -283 306 -264 q 101 -335 164 -301 q -7 -412 39 -368 l -17 -404 m 490 -164 q 628 -120 569 -162 q 725 -6 686 -78 q 783 163 764 67 q 803 371 803 260 q 782 582 803 483 q 720 755 761 681 q 620 872 679 829 q 486 913 561 914 q 358 868 415 911 q 260 752 300 825 q 197 581 219 679 q 175 371 175 483 q 197 163 175 260 q 258 -8 218 65 q 358 -123 299 -81 q 490 -164 417 -165 m 704 -129 q 788 -59 753 -100 q 850 25 822 -18 q 895 113 876 65 q 918 197 914 161 l 882 264 l 839 197 q 835 128 839 161 q 815 47 832 96 q 766 -51 799 -1 q 704 -129 733 -101 m 274 -129 q 212 -51 244 -101 q 163 47 179 -1 q 142 128 146 96 q 139 197 139 161 l 96 264 l 60 197 q 83 113 64 161 q 128 25 101 65 q 190 -59 156 -18 q 274 -129 225 -100 m 282 860 q 196 793 233 831 q 136 725 158 756 q 117 694 128 713 q 95 653 106 675 q 76 609 85 631 q 67 569 68 588 l 103 503 l 146 569 q 159 649 151 615 q 175 707 167 683 q 192 744 181 724 q 219 786 204 765 q 251 826 235 807 q 282 860 267 846 m 696 860 q 726 826 710 846 q 758 786 743 807 q 785 744 774 765 q 803 707 797 724 q 819 649 811 683 q 832 569 826 615 l 875 503 l 911 569 q 901 609 908 588 q 883 653 893 631 q 861 694 872 675 q 842 725 850 713 q 782 793 819 756 q 696 860 744 831 m 46 388 l 83 333 l 124 388 l 83 440 l 46 388 m 894 440 l 854 388 l 894 333 l 932 388 l 894 440 z "},"d":{"ha":563,"x_min":0,"x_max":551,"o":"m 544 460 q 518 225 551 328 q 480 140 504 181 q 418 67 456 99 q 328 16 381 35 q 204 0 275 -3 l 4 0 l 78 60 l 78 781 l 0 843 l 189 843 q 363 804 286 843 q 427 760 396 788 q 483 692 458 733 q 525 593 508 650 q 544 460 542 536 m 282 76 q 322 106 299 86 q 367 167 346 126 q 401 273 388 207 q 413 442 414 339 q 401 588 417 521 q 384 646 394 617 q 357 701 374 675 q 316 747 340 726 q 260 779 292 768 q 239 783 246 783 q 218 783 232 783 l 218 63 q 240 63 229 61 q 282 76 263 65 z "},"/":{"ha":578,"x_min":1,"x_max":554,"o":"m 489 974 l 554 974 l 67 -229 l 1 -229 l 489 974 z "},"(":{"ha":411,"x_min":0,"x_max":393,"o":"m 393 1022 q 329 961 361 996 q 271 891 301 932 q 215 797 240 850 q 158 628 181 726 q 133 403 135 529 q 153 163 131 271 q 208 -26 175 56 q 265 -147 233 -97 q 325 -228 297 -196 q 390 -292 358 -265 l 369 -326 q 289 -258 331 -296 q 211 -181 253 -226 q 131 -78 169 -135 q 35 116 71 10 q 0 369 0 222 q 15 532 0 457 q 54 670 29 607 q 111 785 79 733 q 178 878 143 838 q 247 953 213 921 q 308 1008 281 986 q 353 1041 336 1029 q 371 1053 371 1053 l 393 1022 z "},")":{"ha":421,"x_min":-1,"x_max":392,"o":"m 21 1053 q 38 1041 21 1053 q 83 1008 56 1029 q 145 953 111 986 q 214 878 179 921 q 281 785 249 838 q 338 670 313 733 q 377 532 363 607 q 392 369 392 457 q 356 116 392 222 q 261 -78 321 10 q 181 -181 222 -135 q 103 -258 139 -226 q 22 -326 61 -296 l 1 -292 q 67 -228 33 -265 q 126 -147 94 -196 q 183 -26 157 -97 q 239 163 217 56 q 258 403 261 271 q 234 628 257 529 q 176 797 211 726 q 121 891 151 850 q 63 961 90 932 q -1 1022 31 996 l 21 1053 z "},"!":{"ha":364,"x_min":-4,"x_max":331,"o":"m -4 972 l 331 972 l 301 68 l 169 68 l 149 871 l -4 972 m 160 -32 l 301 -32 l 301 -231 l 160 -231 l 160 -32 m 197 517 l 239 450 l 282 517 l 240 846 l 197 517 m 239 363 l 199 310 l 239 256 l 282 310 l 239 363 z "},"$":{"ha":811,"x_min":-1,"x_max":776,"o":"m 758 619 q 767 576 761 599 q 774 532 772 554 q 772 488 776 510 q 751 449 768 467 q 566 238 658 343 q 375 33 474 132 q 326 32 350 31 q 281 38 303 33 q 237 45 258 42 q 197 50 215 49 q 157 54 179 51 q 114 60 135 57 q 77 65 93 63 q 57 71 61 68 q 35 101 39 82 q 29 136 32 119 q 23 209 26 174 q 14 281 19 244 q 5 346 11 314 q 0 413 -1 378 q 27 452 11 433 q 57 492 43 471 q 151 598 106 544 q 246 706 197 651 q 300 770 268 733 q 360 842 332 807 q 378 856 367 851 q 403 861 390 860 q 426 863 415 863 q 442 864 438 863 q 565 871 503 871 q 688 878 626 871 q 704 871 697 876 q 713 858 711 865 q 719 812 717 835 q 728 765 722 789 q 744 686 736 726 q 758 619 753 646 m 132 522 q 110 495 122 510 q 92 465 99 481 q 122 467 107 458 q 147 482 138 475 q 237 570 196 522 q 318 663 278 618 q 327 681 324 671 q 338 699 331 690 q 340 729 340 713 q 333 756 340 746 q 231 641 286 696 q 132 522 176 586 m 57 189 q 78 185 65 178 q 101 204 90 193 q 113 222 104 210 q 121 258 122 235 q 119 293 124 278 q 97 321 114 308 q 86 324 93 321 q 72 329 79 328 q 58 328 64 331 q 49 318 51 326 q 57 189 60 257 m 340 75 q 339 119 340 96 q 331 164 338 143 q 308 174 319 168 q 285 183 296 181 q 244 188 264 186 q 206 196 224 189 q 158 155 181 176 q 113 110 135 133 l 113 101 q 153 89 133 92 q 194 85 174 86 q 237 85 215 85 q 283 82 258 85 q 319 74 307 79 q 340 75 331 68 m 579 478 q 597 507 592 490 q 602 540 601 524 q 601 572 603 557 q 599 596 599 588 q 591 632 597 607 q 579 676 585 657 q 552 680 571 679 q 517 679 533 681 q 465 676 489 682 q 417 664 440 671 q 331 580 368 625 q 254 489 293 535 q 232 463 244 475 q 208 437 219 450 q 187 410 196 424 q 175 379 178 396 q 178 340 178 354 q 185 308 179 325 q 188 282 188 293 q 192 260 189 271 q 217 234 196 242 q 249 224 238 226 q 274 217 261 221 q 300 210 286 213 q 326 208 314 207 q 351 215 339 208 q 406 282 376 250 q 465 347 435 314 q 524 411 494 379 q 579 478 554 443 m 568 721 q 615 777 590 750 q 656 835 640 804 q 554 833 599 840 q 453 824 510 825 l 429 824 q 422 824 426 824 q 414 822 417 825 q 417 791 414 803 q 422 763 419 779 q 426 733 425 749 q 435 706 428 717 q 472 704 454 703 q 513 707 490 706 q 542 708 528 710 q 568 721 556 707 m 479 633 q 531 616 508 635 q 568 574 554 597 q 565 541 572 560 q 544 502 557 522 q 517 465 532 482 q 492 436 501 447 q 424 357 456 397 q 353 281 393 317 q 317 258 338 268 q 274 258 297 247 q 233 299 242 275 q 217 350 224 324 q 216 382 211 369 q 228 403 221 394 q 317 499 272 453 q 407 592 361 544 q 442 615 424 603 q 479 633 460 626 m 536 535 q 542 559 544 546 q 533 583 540 572 q 511 601 522 593 q 483 606 500 608 q 456 591 468 599 q 433 576 444 583 q 406 552 422 568 q 374 519 390 536 q 344 489 358 503 q 325 471 331 475 q 311 456 322 467 q 287 431 300 444 q 262 401 274 417 q 246 375 250 386 q 243 355 243 368 q 246 328 243 342 q 256 301 249 314 q 274 281 263 289 q 308 278 293 274 q 335 294 324 283 q 358 317 347 304 q 376 340 368 329 q 413 381 394 361 q 456 426 431 400 q 476 453 464 438 q 501 483 489 468 q 522 513 513 499 q 536 535 532 526 z "},".":{"ha":236,"x_min":56,"x_max":171,"o":"m 56 119 l 171 119 l 171 0 l 56 0 l 56 119 z "},"-":{"ha":481,"x_min":81,"x_max":426,"o":"m 81 406 l 426 404 l 426 292 l 81 292 l 81 406 z "},",":{"ha":239,"x_min":56,"x_max":171,"o":"m 56 119 l 171 119 l 171 0 q 155 -74 169 -44 q 122 -121 140 -103 q 74 -154 101 -142 l 56 -132 q 85 -100 72 -119 q 104 -60 96 -85 q 110 0 113 -35 l 56 0 l 56 119 z "},";":{"ha":242,"x_min":58,"x_max":174,"o":"m 58 119 l 174 119 l 174 0 q 158 -74 172 -44 q 125 -121 143 -103 q 76 -154 104 -142 l 58 -132 q 88 -100 75 -119 q 107 -60 99 -85 q 113 0 115 -35 l 58 0 l 58 119 m 58 639 l 174 639 l 174 519 l 58 519 l 58 639 z "},":":{"ha":257,"x_min":67,"x_max":182,"o":"m 67 119 l 182 119 l 182 0 l 67 0 l 67 119 m 67 640 l 182 640 l 182 521 l 67 521 l 67 640 z "},"?":{"ha":735,"x_min":-6,"x_max":701,"o":"m 82 917 q 142 954 101 939 q 235 979 176 968 q 385 990 293 990 q 537 958 478 989 q 631 884 596 926 q 680 797 665 842 q 697 724 694 753 q 690 638 701 682 q 652 549 678 593 q 586 467 626 506 q 493 397 546 428 q 323 278 386 335 q 258 186 260 222 q 263 154 257 168 q 275 129 268 140 q 293 106 282 117 q 249 76 268 89 q 218 56 232 65 q 204 49 204 47 q 156 130 167 89 q 161 215 144 171 q 224 311 178 260 q 347 424 269 363 q 453 513 415 478 q 510 578 492 549 q 535 636 529 607 q 544 707 542 665 q 533 773 546 736 q 496 842 521 810 q 435 897 471 875 q 354 918 399 919 q 281 908 310 915 q 235 890 251 900 q 206 867 215 879 l -6 664 l 82 917 m 206 -32 l 347 -32 l 347 -231 l 206 -231 l 206 -32 m 615 824 l 579 721 l 618 610 l 663 721 l 615 824 z "},"#":{"ha":831,"x_min":0,"x_max":803,"o":"m 107 717 l 293 717 l 385 972 l 464 972 l 374 717 l 551 717 l 644 972 l 724 972 l 632 717 l 803 717 l 775 642 l 607 642 l 544 467 l 719 467 l 697 394 l 517 394 l 425 138 l 347 138 l 439 394 l 261 394 l 169 138 l 89 138 l 179 394 l 0 394 l 22 467 l 203 467 l 268 642 l 78 642 l 107 717 m 467 467 l 526 642 l 349 642 l 285 467 l 467 467 z "},"&":{"ha":1068,"x_min":-1,"x_max":1044,"o":"m 654 428 l 1044 428 l 885 329 q 851 201 872 267 q 806 80 833 146 q 738 -46 778 14 l 790 -137 l 985 -229 l 661 -229 l 626 -162 q 503 -221 572 -199 q 346 -246 433 -243 q 185 -215 251 -249 q 76 -131 118 -182 q 17 -20 35 -81 q 3 90 -1 40 q 16 169 6 125 q 56 261 26 214 q 142 356 86 308 q 293 447 199 404 l 279 475 q 235 572 253 522 q 206 665 218 614 q 197 763 194 715 q 222 850 200 808 q 281 922 244 892 q 369 970 318 953 q 482 988 421 988 q 603 964 557 988 q 676 904 650 940 q 711 823 701 868 q 721 735 721 778 q 699 639 721 685 q 642 553 676 593 q 566 481 608 514 q 485 425 524 449 l 692 36 q 724 94 707 61 q 756 164 742 126 q 779 244 771 201 q 786 329 788 286 l 654 428 m 397 -144 q 451 -138 426 -144 q 497 -123 475 -132 q 539 -102 518 -114 q 582 -78 560 -90 l 338 368 q 274 331 306 353 q 216 279 242 308 q 173 212 190 250 q 151 126 156 174 q 160 35 147 82 q 202 -53 172 -12 q 280 -119 232 -93 q 397 -144 328 -144 m 363 750 q 370 692 363 722 q 388 631 378 661 q 410 574 399 601 q 433 524 422 546 l 446 503 q 578 612 531 558 q 625 742 625 665 q 613 819 625 789 q 583 865 601 849 q 540 888 564 882 q 489 894 515 894 q 424 878 449 893 q 386 843 400 864 q 367 797 372 822 q 363 750 363 772 m 696 -126 l 576 171 l 513 210 l 508 133 l 696 -126 m 494 321 l 436 353 l 424 286 l 483 257 l 494 321 m 288 817 q 270 774 275 799 q 265 723 265 750 q 268 668 265 696 q 275 615 271 640 q 301 535 282 576 q 344 446 319 494 l 408 403 l 415 481 q 385 517 400 496 q 355 560 371 535 q 325 617 339 585 q 315 640 322 622 q 301 685 308 658 q 289 746 293 713 q 288 817 285 779 m 74 194 l 38 92 l 76 -19 l 121 92 l 74 194 z "},"\\":{"ha":585,"x_min":1,"x_max":554,"o":"m 554 -229 l 489 -229 l 1 974 l 67 974 l 554 -229 z "},"+":{"ha":760,"x_min":69,"x_max":688,"o":"m 69 422 l 69 494 l 344 494 l 344 765 l 417 765 l 417 494 l 688 494 l 688 422 l 417 422 l 417 143 l 344 143 l 344 422 l 69 422 l 69 422 z "},"*":{"ha":1128,"x_min":0,"x_max":1104,"o":"m 0 0 l 564 975 l 1104 0 l 0 0 m 282 481 l 558 6 l 833 481 l 282 481 z "},"@":{"ha":1001,"x_min":3,"x_max":988,"o":"m 165 -146 q 93 -212 133 -182 q 6 -257 53 -243 q 24 -165 3 -211 q 68 -79 44 -119 l 325 243 l 399 332 l 579 557 q 599 569 586 567 q 621 578 611 571 q 683 643 656 608 q 738 714 711 678 q 713 735 718 717 q 699 768 708 753 q 670 756 683 767 q 654 746 657 744 l 607 789 q 634 805 619 801 q 665 808 649 808 q 697 806 681 808 q 729 803 714 803 l 774 760 l 788 782 q 795 777 790 775 q 803 778 800 779 q 872 863 839 822 q 938 953 904 903 q 953 959 944 954 q 965 969 961 964 q 980 968 974 972 q 988 956 986 964 q 978 940 976 953 q 974 919 979 928 l 965 919 l 842 768 l 842 760 q 838 760 839 761 q 836 757 838 758 q 821 724 847 733 l 875 686 q 894 627 886 658 q 892 564 903 596 q 872 576 890 565 q 838 601 854 588 q 844 624 840 613 q 846 649 849 635 q 829 655 839 654 q 810 656 819 656 q 792 661 800 657 q 783 676 785 665 q 748 631 768 653 q 710 588 728 610 q 681 540 693 565 q 669 485 669 515 l 557 343 l 165 -146 l 165 -146 m 165 21 q 120 -33 144 -7 q 77 -86 96 -60 q 51 -139 58 -112 q 57 -192 43 -165 q 97 -184 78 -190 q 132 -167 115 -178 l 557 361 l 661 493 q 666 503 665 496 q 665 514 667 511 q 682 562 665 536 q 719 612 699 588 q 758 658 739 636 q 782 694 776 679 l 756 685 q 753 698 747 692 q 756 714 760 704 l 683 624 q 640 585 658 599 q 611 565 622 571 q 594 556 600 558 q 586 550 588 553 l 165 21 l 165 21 z "},"=":{"ha":735,"x_min":81,"x_max":679,"o":"m 81 406 l 679 406 l 679 340 l 81 340 l 81 406 m 81 638 l 679 638 l 679 572 l 81 572 l 81 638 z "},"_":{"ha":742,"x_min":1,"x_max":694,"o":"m 1 -211 l 694 -211 l 694 -276 l 1 -276 l 1 -211 z "},"[":{"ha":349,"x_min":-1,"x_max":313,"o":"m -1 1058 l 313 1058 l 313 997 l 122 997 l 122 -260 l 313 -260 l 313 -324 l -1 -324 l -1 1058 z "},"]":{"ha":356,"x_min":-1,"x_max":313,"o":"m 313 -324 l -1 -324 l -1 -260 l 189 -260 l 189 997 l -1 997 l -1 1058 l 313 1058 l 313 -324 z "},"%":{"ha":1399,"x_min":1,"x_max":1388,"o":"m 1349 49 l 1388 25 l 1388 14 l 1288 -1 l 1282 4 l 1217 -6 l 1083 33 l 1053 46 l 1018 54 l 885 94 l 876 94 l 857 68 l 854 49 l 842 38 l 813 40 l 806 19 l 786 -28 l 693 -126 l 719 -153 l 744 -164 l 781 -206 l 781 -219 l 786 -221 l 781 -225 l 786 -229 l 781 -233 l 789 -246 l 704 -249 l 632 -239 l 561 -211 l 485 -190 l 481 -194 l 468 -190 l 460 -190 l 460 -185 l 475 -176 l 474 -172 l 475 -153 l 521 -99 l 546 -72 l 556 -31 l 568 -15 l 571 11 l 576 14 l 547 31 l 519 38 l 494 25 l 474 4 l 431 -21 l 383 -37 l 369 -50 l 375 -132 l 368 -144 l 369 -150 l 358 -169 l 369 -176 l 375 -176 l 363 -185 l 358 -179 l 349 -185 l 332 -179 l 328 -185 l 263 -176 l 229 -194 l 157 -190 l 153 -187 l 150 -190 l 144 -187 l 136 -187 l 136 -179 l 140 -176 l 115 -133 l 108 -89 l 110 -83 l 104 -68 l 43 -22 l 22 144 l 14 232 l 13 232 l 13 247 l 14 247 l 14 243 l 19 239 l 14 236 l 28 186 l 31 201 l 13 383 l 14 389 l 13 390 l 13 400 l 14 400 l 19 404 l 22 400 l 28 400 l 31 404 l 28 407 l 31 410 l 28 415 l 22 415 l 28 418 l 115 436 l 125 450 l 136 479 l 171 511 l 171 526 l 218 564 l 206 613 l 122 617 l 110 625 l 69 625 l 64 628 l 63 625 l 57 628 l 54 628 l 54 633 l 78 639 l 89 650 l 72 660 l 118 685 l 140 708 l 192 750 l 194 756 l 194 760 l 192 765 l 206 794 l 232 838 l 246 847 l 253 868 l 289 906 l 332 949 l 375 964 l 419 965 l 424 969 l 515 965 l 542 956 l 603 914 l 651 860 l 678 803 l 710 765 l 713 681 l 699 603 l 674 558 l 664 547 l 664 538 l 683 511 l 683 476 l 678 471 l 686 431 l 693 410 l 699 389 l 710 340 l 747 293 l 794 247 l 794 232 l 806 222 l 831 217 l 831 213 l 796 222 l 794 224 l 774 192 l 765 182 l 739 165 l 733 165 l 728 163 l 733 151 l 781 115 l 800 115 l 806 117 l 824 110 l 813 115 l 808 115 l 800 107 l 813 94 l 835 100 l 844 110 l 850 147 l 861 175 l 861 192 l 842 208 l 840 213 l 869 197 l 871 197 l 901 251 l 906 258 l 926 253 l 932 243 l 915 192 l 915 186 l 940 175 l 1040 151 l 1211 110 l 1281 90 l 1307 72 l 1314 72 l 1349 49 l 1349 49 m 901 239 l 881 197 l 901 232 l 922 239 l 926 243 l 918 251 l 906 251 l 901 239 l 901 239 m 256 860 l 253 847 l 328 872 l 332 868 l 349 868 l 368 872 l 369 868 l 378 868 l 431 860 l 439 853 l 468 844 l 503 826 l 563 765 l 588 715 l 588 731 l 590 735 l 597 725 l 597 711 l 594 664 l 614 708 l 624 746 l 629 781 l 608 807 l 594 842 l 597 844 l 638 785 l 642 746 l 649 760 l 651 760 l 657 757 l 651 756 l 651 742 l 624 681 l 632 674 l 632 660 l 629 654 l 617 601 l 622 599 l 672 574 l 678 589 l 686 613 l 693 625 l 703 696 l 699 699 l 703 704 l 704 725 l 703 731 l 704 735 l 704 742 l 703 746 l 704 750 l 667 803 l 642 856 l 582 917 l 576 917 l 561 933 l 521 956 l 481 964 l 454 958 l 368 949 l 339 940 l 256 860 l 256 860 m 590 506 l 597 497 l 594 457 l 622 492 l 658 558 l 649 572 l 614 582 l 582 532 l 546 506 l 546 483 l 529 444 l 500 415 l 494 418 l 500 444 l 494 451 l 475 415 l 446 369 l 433 369 l 404 390 l 400 389 l 393 192 l 397 190 l 400 190 l 489 226 l 500 224 l 529 239 l 529 247 l 526 243 l 519 243 l 515 247 l 515 251 l 553 293 l 571 329 l 568 335 l 571 356 l 568 381 l 571 407 l 582 496 l 590 506 l 590 506 m 568 258 l 563 274 l 556 274 l 547 261 l 568 258 l 568 258 m 507 217 l 489 206 l 507 213 l 507 217 l 507 217 m 397 163 l 393 165 l 393 171 l 389 171 l 389 156 l 393 156 l 431 165 l 468 190 l 474 201 l 468 201 l 460 186 l 431 171 l 397 163 l 397 163 m 413 178 l 414 178 l 454 197 l 446 197 l 413 178 l 413 178 m 443 161 l 389 142 l 393 115 l 424 129 l 489 190 l 443 161 l 443 161 m 256 558 l 247 503 l 253 483 l 274 461 l 289 506 l 272 578 l 256 608 l 257 586 l 256 558 l 256 558 m 246 557 l 247 582 l 232 608 l 218 613 l 221 574 l 240 553 l 246 557 l 246 557 m 301 503 l 289 457 l 314 450 l 354 451 l 328 483 l 301 503 l 301 503 m 307 513 l 354 483 l 397 465 l 489 497 l 500 511 l 507 503 l 503 497 l 507 457 l 515 442 l 529 468 l 536 572 l 556 613 l 553 639 l 542 669 l 521 689 l 521 678 l 547 628 l 535 582 l 529 586 l 535 633 l 526 643 l 500 647 l 492 643 l 515 625 l 515 617 l 510 613 l 507 617 l 500 628 l 481 633 l 485 628 l 485 613 l 474 601 l 460 601 l 450 613 l 433 625 l 431 619 l 414 619 l 407 628 l 397 628 l 385 625 l 383 628 l 383 633 l 369 617 l 368 617 l 368 608 l 363 603 l 358 608 l 349 599 l 339 599 l 328 601 l 322 617 l 307 617 l 297 613 l 301 599 l 297 593 l 293 599 l 288 613 l 289 617 l 288 619 l 267 613 l 274 599 l 307 513 l 307 513 m 339 619 l 349 617 l 349 619 l 339 619 l 339 619 m 515 664 l 510 669 l 510 689 l 492 669 l 503 669 l 515 664 l 515 664 m 494 660 l 485 660 l 454 643 l 494 660 l 494 660 m 578 564 l 556 540 l 547 540 l 547 521 l 553 526 l 556 526 l 588 557 l 603 589 l 608 625 l 597 625 l 590 619 l 588 593 l 578 564 l 578 564 m 556 557 l 563 564 l 568 564 l 576 593 l 556 557 l 556 557 m 606 635 l 608 633 l 608 635 l 617 660 l 614 660 l 603 650 l 568 617 l 547 574 l 553 574 l 553 578 l 588 628 l 606 635 l 606 635 m 368 461 l 368 457 l 378 444 l 397 435 l 400 415 l 428 389 l 443 383 l 481 450 l 494 479 l 489 492 l 465 476 l 407 451 l 397 450 l 368 461 l 368 461 m 201 772 l 200 760 l 201 757 l 226 765 l 229 760 l 256 772 l 308 776 l 369 769 l 439 756 l 492 731 l 556 664 l 563 625 l 576 635 l 578 689 l 568 731 l 553 757 l 507 807 l 485 821 l 454 833 l 428 842 l 419 847 l 324 856 l 267 842 l 236 826 l 201 772 l 201 772 m 214 625 l 279 643 l 282 639 l 279 635 l 279 633 l 282 633 l 314 639 l 389 669 l 393 664 l 393 663 l 385 654 l 343 635 l 358 639 l 404 654 l 465 696 l 468 694 l 468 685 l 460 678 l 433 654 l 454 660 l 500 689 l 507 704 l 492 715 l 454 735 l 368 757 l 257 760 l 232 746 l 221 746 l 201 742 l 133 681 l 136 681 l 140 678 l 140 674 l 133 664 l 131 664 l 115 643 l 92 635 l 104 635 l 108 633 l 157 635 l 171 628 l 171 625 l 214 625 l 214 625 m 214 547 l 185 518 l 192 503 l 229 457 l 253 451 l 253 461 l 240 479 l 232 511 l 236 538 l 226 547 l 214 547 l 214 547 m 150 476 l 133 444 l 144 444 l 157 450 l 211 457 l 194 479 l 176 497 l 168 496 l 150 476 l 150 476 m 43 121 l 47 117 l 57 4 l 64 -12 l 64 -7 l 72 -1 l 78 -1 l 83 -12 l 78 -21 l 83 -31 l 92 -31 l 108 -47 l 122 -36 l 125 -37 l 125 -42 l 118 -54 l 150 -72 l 165 -65 l 168 -68 l 168 -72 l 165 -83 l 194 -108 l 201 -108 l 201 -103 l 214 -92 l 221 -99 l 214 -117 l 236 -108 l 253 -97 l 246 -97 l 240 -92 l 240 -83 l 247 -76 l 256 -76 l 263 -83 l 257 -89 l 263 -89 l 293 -62 l 289 -62 l 288 -57 l 288 -50 l 293 -42 l 307 -54 l 317 -42 l 332 -22 l 328 -22 l 322 -15 l 328 -7 l 339 -12 l 339 -7 l 349 110 l 343 304 l 349 308 l 343 311 l 343 322 l 336 407 l 324 407 l 317 415 l 322 418 l 317 422 l 293 431 l 282 425 l 288 422 l 288 418 l 279 410 l 274 410 l 267 418 l 267 422 l 274 431 l 236 431 l 221 422 l 226 418 l 232 407 l 236 288 l 247 288 l 274 285 l 279 288 l 282 288 l 336 285 l 339 192 l 332 182 l 288 175 l 282 178 l 229 171 l 229 21 l 236 6 l 232 4 l 236 -22 l 232 -47 l 153 -54 l 150 -50 l 144 -36 l 136 4 l 140 6 l 136 11 l 136 21 l 133 126 l 125 163 l 49 156 l 43 163 l 47 247 l 43 258 l 54 268 l 104 274 l 125 283 l 125 400 l 140 407 l 133 418 l 89 410 l 92 396 l 89 390 l 79 390 l 78 396 l 78 410 l 43 404 l 43 400 l 47 389 l 43 383 l 31 383 l 28 389 l 28 396 l 19 396 l 35 243 l 31 239 l 38 144 l 47 126 l 43 121 l 43 121 m 185 407 l 136 396 l 136 274 l 131 267 l 79 261 l 54 253 l 57 165 l 72 165 l 92 171 l 136 178 l 140 175 l 140 171 l 150 121 l 144 117 l 153 -22 l 160 -37 l 176 -37 l 221 -36 l 218 175 l 226 182 l 229 182 l 307 192 l 317 190 l 324 197 l 322 278 l 307 278 l 256 274 l 226 278 l 221 389 l 226 390 l 221 396 l 218 407 l 185 407 l 185 407 m 150 422 l 157 410 l 206 418 l 206 425 l 185 425 l 150 422 l 150 422 m 61 -21 l 61 -14 l 54 -14 l 54 -21 l 61 -21 l 61 -21 m 108 -62 l 150 -89 l 64 -28 l 108 -62 l 108 -62 m 256 -164 l 267 -160 l 297 -132 l 322 -82 l 317 -82 l 301 -97 l 240 -137 l 221 -143 l 118 -89 l 118 -118 l 144 -169 l 176 -187 l 226 -187 l 247 -176 l 247 -169 l 253 -164 l 256 -164 l 256 -164 m 368 -103 l 363 -92 l 368 -89 l 363 -83 l 363 -54 l 354 -54 l 343 -62 l 324 -99 l 328 -99 l 349 -72 l 351 -76 l 351 -82 l 339 -103 l 314 -132 l 288 -160 l 288 -169 l 322 -169 l 339 -158 l 358 -132 l 368 -103 l 368 -103 m 368 161 l 363 163 l 369 222 l 368 224 l 369 226 l 368 232 l 369 243 l 368 247 l 369 251 l 368 253 l 368 267 l 369 268 l 368 274 l 368 278 l 369 283 l 368 285 l 368 293 l 369 389 l 368 390 l 368 396 l 369 400 l 368 404 l 368 422 l 354 435 l 343 431 l 328 436 l 274 442 l 272 442 l 269 442 l 211 444 l 201 436 l 200 442 l 108 431 l 35 410 l 38 410 l 64 418 l 69 415 l 72 418 l 110 425 l 115 422 l 118 425 l 122 425 l 157 435 l 269 442 l 274 442 l 332 435 l 351 415 l 354 390 l 351 389 l 354 383 l 363 253 l 358 142 l 363 136 l 358 133 l 363 129 l 354 21 l 358 19 l 349 -22 l 307 -68 l 240 -118 l 214 -126 l 229 -126 l 257 -111 l 317 -65 l 349 -37 l 358 -21 l 368 142 l 363 144 l 368 147 l 368 151 l 363 156 l 368 161 l 368 161 m 369 54 l 375 33 l 369 -21 l 378 25 l 375 31 l 375 33 l 375 38 l 378 65 l 375 68 l 378 72 l 378 86 l 375 90 l 378 94 l 375 100 l 378 101 l 378 115 l 383 156 l 378 161 l 385 192 l 383 197 l 385 208 l 383 213 l 385 217 l 393 410 l 385 431 l 375 431 l 378 422 l 375 418 l 378 415 l 378 390 l 369 54 l 369 54 m 474 14 l 608 165 l 624 175 l 664 192 l 658 197 l 632 208 l 590 232 l 588 226 l 556 239 l 556 243 l 561 247 l 547 247 l 535 217 l 503 175 l 494 182 l 465 147 l 413 107 l 393 101 l 385 38 l 389 33 l 389 21 l 385 19 l 389 14 l 385 11 l 385 -7 l 378 -31 l 433 -7 l 474 14 l 474 14 m 489 -179 l 489 -176 l 485 -176 l 485 -179 l 489 -179 l 489 -179 m 590 -214 l 597 -214 l 582 -207 l 568 -199 l 535 -194 l 556 -199 l 582 -207 l 590 -214 l 590 -214 m 769 -31 l 769 -31 l 779 -22 l 774 -21 l 768 -29 l 769 -31 l 768 -31 l 747 -42 l 710 -54 l 667 -50 l 632 -36 l 582 6 l 590 -15 l 588 -21 l 582 -21 l 576 -12 l 571 -15 l 582 -36 l 576 -42 l 568 -36 l 561 -42 l 553 -83 l 536 -99 l 492 -144 l 489 -169 l 510 -179 l 568 -185 l 588 -199 l 651 -219 l 703 -225 l 713 -221 l 718 -225 l 739 -229 l 774 -225 l 774 -214 l 769 -211 l 751 -185 l 718 -158 l 713 -160 l 710 -158 l 710 -153 l 683 -143 l 643 -153 l 614 -143 l 614 -137 l 617 -133 l 642 -137 l 643 -133 l 649 -137 l 651 -133 l 658 -133 l 704 -99 l 667 -103 l 643 -97 l 642 -99 l 638 -97 l 614 -83 l 588 -62 l 582 -47 l 588 -42 l 597 -54 l 624 -76 l 649 -83 l 683 -89 l 719 -76 l 768 -31 l 769 -31 l 769 -31 m 796 19 l 800 38 l 796 56 l 763 107 l 744 117 l 744 126 l 733 136 l 728 136 l 704 156 l 693 165 l 699 171 l 719 171 l 735 178 l 739 175 l 744 178 l 754 182 l 779 206 l 786 239 l 728 300 l 703 340 l 678 422 l 674 506 l 658 528 l 632 492 l 606 435 l 608 435 l 614 436 l 638 479 l 642 476 l 642 471 l 624 435 l 588 389 l 588 375 l 582 322 l 571 283 l 576 268 l 606 236 l 632 224 l 678 192 l 690 175 l 686 171 l 651 178 l 629 171 l 629 165 l 622 161 l 617 161 l 571 115 l 521 46 l 603 19 l 617 4 l 614 -1 l 622 -12 l 657 -36 l 703 -37 l 747 -31 l 765 -15 l 765 -7 l 796 19 l 796 19 m 808 68 l 815 86 l 813 90 l 806 90 l 786 94 l 794 81 l 808 65 l 808 68 l 808 68 m 842 49 l 892 156 l 918 224 l 906 224 l 885 178 l 854 121 l 854 107 l 844 100 l 824 60 l 824 49 l 826 49 l 831 46 l 842 49 l 842 49 m 911 171 l 896 142 l 901 142 l 911 171 l 911 171 m 1222 4 l 1222 6 l 1197 46 l 1063 81 l 1063 83 l 1068 86 l 1124 72 l 1189 60 l 1197 54 l 1203 60 l 1264 83 l 1261 86 l 1211 100 l 1033 144 l 922 171 l 906 133 l 953 117 l 1063 86 l 1063 83 l 1060 81 l 901 121 l 892 101 l 947 83 l 1222 4 l 1222 4 m 1233 6 l 1374 21 l 1357 33 l 1278 81 l 1211 54 l 1218 25 l 1233 6 l 1233 6 m 3 410 l 13 410 l 14 415 l 3 400 l 13 288 l 14 268 l 14 253 l 3 346 l 1 389 l 3 410 l 3 410 m 385 582 l 389 578 l 383 540 l 385 538 l 389 538 l 389 532 l 378 538 l 369 553 l 385 582 l 385 582 m 503 511 l 529 582 l 507 511 l 503 511 l 503 511 m 404 528 l 414 528 l 385 518 l 404 528 l 404 528 m 424 528 l 419 526 l 414 528 l 424 528 l 424 528 m 400 503 l 404 497 l 397 503 l 400 503 l 400 503 z "},"^":{"ha":1096,"x_min":6,"x_max":1064,"o":"m 1057 651 l 1064 632 l 1019 649 l 947 653 l 910 649 l 879 638 l 853 618 l 838 604 l 829 599 l 797 551 l 778 517 l 772 513 l 765 500 l 757 485 l 711 439 l 711 436 l 726 431 l 672 399 l 671 396 l 671 392 l 682 374 l 683 351 l 692 319 l 678 283 l 669 269 l 644 264 l 638 261 l 626 268 l 601 264 l 594 254 l 594 247 l 567 208 l 556 161 l 542 139 l 542 136 l 554 119 l 556 100 l 561 76 l 596 71 l 650 61 l 678 58 l 772 44 l 778 43 l 781 33 l 801 18 l 813 10 l 821 -4 l 846 -32 l 888 -111 l 897 -140 l 915 -174 l 913 -183 l 919 -201 l 917 -203 l 917 -207 l 919 -208 l 935 -207 l 938 -210 l 935 -215 l 921 -215 l 919 -217 l 921 -231 l 919 -233 l 913 -217 l 797 -235 l 793 -239 l 744 -243 l 686 -247 l 679 -249 l 650 -247 l 644 -247 l 636 -242 l 619 -236 l 594 -219 l 588 -217 l 574 -219 l 486 -149 l 429 -104 l 422 -99 l 399 -104 l 350 -101 l 335 -96 l 314 -74 l 307 -58 l 292 -42 l 279 -39 l 269 -29 l 268 -18 l 264 -10 l 260 -7 l 254 -3 l 249 -3 l 179 -68 l 169 -72 l 150 -76 l 129 -86 l 99 -92 l 43 -108 l 40 -111 l 35 -107 l 7 -114 l 6 -112 l 8 -106 l 13 -83 l 22 -64 l 33 -47 l 58 -18 l 58 -14 l 119 32 l 131 39 l 167 92 l 199 154 l 188 176 l 188 181 l 188 182 l 182 182 l 171 167 l 156 129 l 126 86 l 79 68 l 75 64 l 63 61 l 44 54 l 35 51 l 33 51 l 36 79 l 51 132 l 56 143 l 56 153 l 51 157 l 44 165 l 39 172 l 40 189 l 51 219 l 51 247 l 51 251 l 61 256 l 110 307 l 115 315 l 115 324 l 157 347 l 236 378 l 239 383 l 249 388 l 288 419 l 292 428 l 308 454 l 324 501 l 324 503 l 292 507 l 274 501 l 267 501 l 264 503 l 281 535 l 285 543 l 301 560 l 307 560 l 308 560 l 308 563 l 307 564 l 263 560 l 256 560 l 253 560 l 242 582 l 240 596 l 235 599 l 226 631 l 224 665 l 218 694 l 218 699 l 217 700 l 228 765 l 261 853 l 307 963 l 315 972 l 321 974 l 349 972 l 396 963 l 399 958 l 418 957 l 465 932 l 499 907 l 503 904 l 507 904 l 510 906 l 553 853 l 554 844 l 561 836 l 560 825 l 553 808 l 547 800 l 547 797 l 549 796 l 578 803 l 610 804 l 647 808 l 694 807 l 732 808 l 744 804 l 806 796 l 861 776 l 885 763 l 888 763 l 889 765 l 881 775 l 894 772 l 917 758 l 928 758 l 1000 713 l 1017 700 l 1019 694 l 1019 688 l 1057 651 l 1057 651 m 293 571 l 339 576 l 339 588 l 336 588 l 335 585 l 328 588 l 321 583 l 303 582 l 285 576 l 263 579 l 260 583 l 251 617 l 243 657 l 239 686 l 240 703 l 239 710 l 240 725 l 246 763 l 269 831 l 271 839 l 276 850 l 292 892 l 315 939 l 315 946 l 321 950 l 326 950 l 371 946 l 424 925 l 467 900 l 531 844 l 531 838 l 517 804 l 506 783 l 507 783 l 517 789 l 528 790 l 528 801 l 532 804 l 549 836 l 540 853 l 525 875 l 503 894 l 482 911 l 436 943 l 403 950 l 368 957 l 328 963 l 317 965 l 311 960 l 294 915 l 275 871 l 251 796 l 232 732 l 231 719 l 228 671 l 239 628 l 247 607 l 249 594 l 253 589 l 251 583 l 254 571 l 263 571 l 281 574 l 293 571 l 293 571 m 339 728 l 324 731 l 321 728 l 319 713 l 321 710 l 336 717 l 339 721 l 339 728 l 339 728 m 326 747 l 331 747 l 331 750 l 326 750 l 326 747 l 326 747 m 332 767 l 354 789 l 368 797 l 349 807 l 339 796 l 332 797 l 319 789 l 314 779 l 310 763 l 314 763 l 317 772 l 332 786 l 335 782 l 332 776 l 328 763 l 332 763 l 332 765 l 332 767 l 332 767 m 301 706 l 299 710 l 299 714 l 303 719 l 307 732 l 303 733 l 294 733 l 285 706 l 288 703 l 300 692 l 303 694 l 303 703 l 301 706 l 301 706 m 319 596 l 332 624 l 326 628 l 310 638 l 289 590 l 299 590 l 319 596 l 319 596 m 336 615 l 332 606 l 328 596 l 339 597 l 339 603 l 343 611 l 342 617 l 336 618 l 336 615 l 336 615 m 292 613 l 301 643 l 300 644 l 283 649 l 281 639 l 275 631 l 269 611 l 264 603 l 264 594 l 267 589 l 274 589 l 276 590 l 292 613 l 292 613 m 264 685 l 253 663 l 254 663 l 274 678 l 268 685 l 264 685 l 264 685 m 251 672 l 256 690 l 247 694 l 251 672 l 251 672 m 275 651 l 254 653 l 260 622 l 263 615 l 275 651 l 275 651 m 271 692 l 289 685 l 289 690 l 276 703 l 279 718 l 275 718 l 269 725 l 251 732 l 249 726 l 247 707 l 251 703 l 260 703 l 271 692 l 271 692 m 267 758 l 260 747 l 260 740 l 275 732 l 281 750 l 274 758 l 276 761 l 279 790 l 292 804 l 293 815 l 300 828 l 314 825 l 317 835 l 321 847 l 303 854 l 296 836 l 292 817 l 281 801 l 274 783 l 267 758 l 267 758 m 261 772 l 285 831 l 300 858 l 292 863 l 269 803 l 261 772 l 261 772 m 294 779 l 307 783 l 308 794 l 294 796 l 293 794 l 292 782 l 293 779 l 294 779 l 294 779 m 300 772 l 293 772 l 289 758 l 292 756 l 294 756 l 300 760 l 300 772 l 300 772 m 301 804 l 319 801 l 321 803 l 321 807 l 314 814 l 308 814 l 301 811 l 301 804 l 301 804 m 285 733 l 283 731 l 285 732 l 285 733 l 285 733 m 299 742 l 311 749 l 311 753 l 308 753 l 303 749 l 296 749 l 296 742 l 299 742 l 299 742 m 383 836 l 383 843 l 382 839 l 375 847 l 374 850 l 356 851 l 349 847 l 332 807 l 339 807 l 339 808 l 356 835 l 374 838 l 376 835 l 382 835 l 383 836 l 383 836 m 386 811 l 383 801 l 389 790 l 392 790 l 394 794 l 396 790 l 404 790 l 407 794 l 407 803 l 407 803 l 386 811 l 386 811 m 379 817 l 368 825 l 363 825 l 361 814 l 375 807 l 376 808 l 379 817 l 379 817 m 332 835 l 335 839 l 332 843 l 328 843 l 326 835 l 322 829 l 326 829 l 332 835 l 332 835 m 350 772 l 346 739 l 347 738 l 363 721 l 392 726 l 404 731 l 418 732 l 431 738 l 436 742 l 444 747 l 444 750 l 443 750 l 418 760 l 403 772 l 385 782 l 371 786 l 363 783 l 350 772 l 350 772 m 411 786 l 414 783 l 435 776 l 436 779 l 439 788 l 438 788 l 436 789 l 431 794 l 417 797 l 411 786 l 411 786 m 443 775 l 444 772 l 467 765 l 467 767 l 454 779 l 444 779 l 443 775 l 443 775 m 446 794 l 467 783 l 482 775 l 486 775 l 493 786 l 493 796 l 482 807 l 451 822 l 436 832 l 404 847 l 383 857 l 346 875 l 343 872 l 339 875 l 303 894 l 301 892 l 296 872 l 303 872 l 314 864 l 342 851 l 347 857 l 361 860 l 375 857 l 385 847 l 386 850 l 390 846 l 392 838 l 389 835 l 389 829 l 390 829 l 399 822 l 429 808 l 446 794 l 446 794 m 442 864 l 453 894 l 449 894 l 446 897 l 432 903 l 432 899 l 410 854 l 414 851 l 431 846 l 442 864 l 442 864 m 458 882 l 446 863 l 438 843 l 458 832 l 475 863 l 478 875 l 475 879 l 464 886 l 458 886 l 458 882 l 458 882 m 424 900 l 424 907 l 422 907 l 414 913 l 407 915 l 403 910 l 389 878 l 383 868 l 386 863 l 390 863 l 404 860 l 411 879 l 424 900 l 424 900 m 376 872 l 399 921 l 374 932 l 350 882 l 376 871 l 376 872 l 376 872 m 346 892 l 364 932 l 357 939 l 347 939 l 339 935 l 339 932 l 335 922 l 332 910 l 324 900 l 324 894 l 326 894 l 343 889 l 346 892 l 346 892 m 317 899 l 332 939 l 324 940 l 308 903 l 317 899 l 317 899 m 489 819 l 504 843 l 506 850 l 489 868 l 482 868 l 479 854 l 467 836 l 465 825 l 467 825 l 471 822 l 486 814 l 489 815 l 489 819 l 489 819 m 499 819 l 493 807 l 500 804 l 500 807 l 513 828 l 514 839 l 510 839 l 499 819 l 499 819 m 279 514 l 332 521 l 346 528 l 346 532 l 343 531 l 339 531 l 336 535 l 357 563 l 379 579 l 379 583 l 376 583 l 369 575 l 332 563 l 300 547 l 289 532 l 279 514 l 279 514 m 350 582 l 367 585 l 371 590 l 369 596 l 367 596 l 364 597 l 361 604 l 354 604 l 350 582 l 350 582 m 239 250 l 239 221 l 246 211 l 268 200 l 296 201 l 307 214 l 307 221 l 299 229 l 288 250 l 279 250 l 263 249 l 260 243 l 256 224 l 264 222 l 279 219 l 279 224 l 271 232 l 269 229 l 267 222 l 264 222 l 263 224 l 261 229 l 269 240 l 274 240 l 292 221 l 283 208 l 281 211 l 254 211 l 247 221 l 253 251 l 256 256 l 269 257 l 268 260 l 247 260 l 239 250 l 239 250 m 332 139 l 303 125 l 299 118 l 296 106 l 301 99 l 308 93 l 328 96 l 332 100 l 332 101 l 385 144 l 349 151 l 346 149 l 332 139 l 332 139 m 317 157 l 319 154 l 321 157 l 317 157 l 317 157 m 294 140 l 289 136 l 293 136 l 299 140 l 294 140 l 294 140 m 283 139 l 289 144 l 300 153 l 301 151 l 303 151 l 303 154 l 279 160 l 268 157 l 269 157 l 281 149 l 283 139 l 283 139 m 143 331 l 143 328 l 179 311 l 201 296 l 201 289 l 206 272 l 204 271 l 204 269 l 211 256 l 204 176 l 219 157 l 235 136 l 239 147 l 254 168 l 261 168 l 263 167 l 283 172 l 294 167 l 294 168 l 292 176 l 289 179 l 269 182 l 268 181 l 249 188 l 235 201 l 226 240 l 219 251 l 219 261 l 211 276 l 211 283 l 206 343 l 217 358 l 214 358 l 192 350 l 163 340 l 143 331 l 143 331 m 240 113 l 239 113 l 239 108 l 240 108 l 240 113 l 240 113 m 88 83 l 99 86 l 97 89 l 92 90 l 56 113 l 43 61 l 44 61 l 68 71 l 88 83 l 88 83 m 126 101 l 147 139 l 144 139 l 133 129 l 122 125 l 119 121 l 107 114 l 107 107 l 97 104 l 79 111 l 115 90 l 118 93 l 126 101 l 126 101 m 75 125 l 81 121 l 79 125 l 75 125 l 75 125 m 194 221 l 199 251 l 190 275 l 171 293 l 154 300 l 129 307 l 111 297 l 81 264 l 76 251 l 68 233 l 63 211 l 58 200 l 58 168 l 81 157 l 92 154 l 115 144 l 156 186 l 169 193 l 194 221 l 194 221 m 47 -99 l 51 -92 l 49 -87 l 40 -61 l 32 -72 l 24 -86 l 26 -92 l 22 -96 l 21 -106 l 26 -106 l 29 -101 l 36 -101 l 40 -99 l 47 -99 l 47 -99 m 126 -64 l 126 -60 l 111 -49 l 108 -39 l 104 -18 l 107 -3 l 101 -3 l 96 -4 l 81 -17 l 71 -14 l 44 -42 l 44 -47 l 51 -64 l 58 -83 l 67 -92 l 67 -90 l 54 -60 l 56 -58 l 54 -47 l 58 -39 l 63 -43 l 69 -72 l 75 -81 l 101 -76 l 107 -72 l 110 -72 l 117 -74 l 122 -64 l 126 -64 l 126 -64 m 242 3 l 242 6 l 236 11 l 231 18 l 232 21 l 232 29 l 228 33 l 225 65 l 226 71 l 231 90 l 228 93 l 225 99 l 226 119 l 224 125 l 213 132 l 204 132 l 147 38 l 135 25 l 122 14 l 117 4 l 115 -31 l 135 -56 l 183 -47 l 242 3 l 242 3 m 247 139 l 242 119 l 243 118 l 246 118 l 251 121 l 247 132 l 260 149 l 263 144 l 263 140 l 256 136 l 254 129 l 260 129 l 261 129 l 269 136 l 274 147 l 271 147 l 269 149 l 254 151 l 247 139 l 247 139 m 279 108 l 274 119 l 269 119 l 254 113 l 254 108 l 253 107 l 246 104 l 243 90 l 247 90 l 253 96 l 279 108 l 279 108 m 256 39 l 292 86 l 288 96 l 283 96 l 271 92 l 251 81 l 247 71 l 243 18 l 247 14 l 249 14 l 261 4 l 261 11 l 260 14 l 256 39 l 256 39 m 311 68 l 314 79 l 300 81 l 294 71 l 271 43 l 275 18 l 285 -10 l 289 -29 l 299 29 l 311 68 l 311 68 m 324 -24 l 332 -18 l 326 -18 l 322 -15 l 324 -24 l 324 -24 l 324 -24 m 324 4 l 332 11 l 332 11 l 326 14 l 326 17 l 322 3 l 322 -10 l 324 4 l 324 4 m 360 -83 l 382 -83 l 374 -81 l 364 -72 l 361 -72 l 354 -76 l 354 -81 l 356 -81 l 360 -83 l 360 -83 m 396 -86 l 399 -83 l 392 -83 l 392 -86 l 396 -86 l 396 -86 m 399 -74 l 399 -68 l 386 -60 l 379 -58 l 374 -61 l 374 -65 l 382 -74 l 399 -74 l 399 -74 m 392 -49 l 394 -49 l 394 -47 l 392 -47 l 392 -49 l 392 -49 m 418 57 l 439 76 l 454 79 l 467 92 l 489 96 l 507 92 l 507 96 l 490 101 l 463 104 l 431 96 l 417 86 l 414 79 l 389 49 l 376 36 l 376 29 l 376 24 l 376 24 l 379 -18 l 376 24 l 382 29 l 383 29 l 396 32 l 396 33 l 418 57 l 418 57 m 431 29 l 444 21 l 438 29 l 431 29 l 431 29 m 500 -25 l 500 -24 l 499 -24 l 500 -25 l 500 -25 m 519 -146 l 519 -131 l 514 -114 l 511 -58 l 513 -108 l 511 -139 l 517 -146 l 519 -146 l 519 -146 m 547 -165 l 553 -168 l 550 -154 l 544 -114 l 547 -165 l 547 -165 m 585 -189 l 585 -182 l 581 -165 l 571 -61 l 567 -54 l 565 -54 l 568 -65 l 567 -67 l 578 -168 l 581 -189 l 585 -189 l 585 -189 m 585 -74 l 585 -74 l 585 -65 l 585 -65 l 585 -74 l 585 -74 m 910 -208 l 910 -206 l 904 -206 l 854 -217 l 910 -208 l 910 -208 m 897 -201 l 904 -197 l 897 -194 l 885 -189 l 881 -186 l 846 -175 l 799 -151 l 783 -139 l 754 -128 l 733 -124 l 726 -119 l 726 -114 l 676 -96 l 679 -100 l 676 -104 l 675 -101 l 661 -99 l 661 -101 l 663 -119 l 661 -124 l 658 -124 l 657 -122 l 650 -92 l 638 -87 l 638 -90 l 649 -140 l 644 -146 l 643 -146 l 635 -133 l 624 -81 l 619 -76 l 614 -76 l 614 -83 l 619 -87 l 622 -124 l 626 -144 l 626 -186 l 624 -189 l 619 -186 l 614 -154 l 607 -124 l 600 -67 l 596 -67 l 601 -133 l 607 -206 l 629 -217 l 669 -226 l 708 -224 l 840 -208 l 867 -203 l 897 -201 l 897 -201 m 821 -151 l 838 -161 l 860 -169 l 838 -156 l 821 -151 l 821 -151 m 601 54 l 507 61 l 486 68 l 465 68 l 424 43 l 424 39 l 426 39 l 453 25 l 457 18 l 531 -10 l 542 -18 l 596 -47 l 629 -60 l 733 -107 l 769 -124 l 825 -146 l 881 -174 l 897 -183 l 900 -183 l 900 -182 l 874 -121 l 840 -61 l 779 10 l 747 29 l 726 29 l 708 33 l 644 46 l 626 44 l 601 54 l 601 54 m 544 104 l 519 129 l 500 147 l 490 151 l 486 147 l 479 147 l 469 143 l 453 139 l 414 132 l 407 126 l 383 118 l 357 90 l 335 44 l 326 17 l 328 18 l 335 21 l 336 21 l 339 21 l 342 21 l 342 32 l 354 68 l 367 86 l 369 86 l 383 100 l 421 126 l 424 121 l 417 114 l 407 108 l 376 83 l 364 65 l 357 46 l 349 7 l 350 7 l 350 17 l 357 21 l 361 21 l 367 24 l 364 36 l 369 46 l 418 101 l 436 108 l 438 107 l 471 113 l 499 111 l 513 104 l 513 107 l 507 113 l 482 129 l 482 132 l 486 136 l 489 133 l 499 129 l 510 118 l 528 100 l 533 93 l 533 90 l 540 83 l 544 83 l 550 81 l 550 83 l 549 96 l 544 104 l 544 104 m 561 214 l 574 243 l 568 256 l 557 271 l 519 292 l 486 297 l 482 296 l 475 289 l 475 276 l 449 247 l 443 233 l 383 168 l 383 165 l 386 165 l 389 167 l 414 172 l 418 167 l 403 158 l 411 157 l 438 168 l 449 172 l 479 168 l 504 160 l 514 161 l 528 149 l 533 149 l 533 151 l 539 157 l 540 164 l 554 188 l 561 214 l 561 214 m 608 275 l 614 276 l 613 296 l 613 289 l 607 283 l 606 275 l 608 275 l 608 275 m 619 346 l 622 357 l 619 357 l 619 354 l 614 351 l 607 347 l 596 350 l 594 347 l 592 350 l 585 350 l 544 347 l 526 344 l 486 332 l 463 319 l 446 307 l 385 300 l 376 297 l 375 300 l 374 300 l 369 296 l 364 296 l 361 300 l 363 300 l 364 307 l 374 340 l 382 383 l 379 404 l 382 417 l 376 421 l 374 432 l 369 432 l 363 444 l 361 456 l 356 472 l 357 519 l 354 519 l 347 514 l 336 510 l 321 468 l 335 481 l 336 479 l 336 475 l 322 460 l 319 447 l 303 424 l 268 383 l 260 383 l 246 371 l 242 339 l 243 332 l 242 331 l 246 303 l 263 271 l 275 268 l 289 263 l 300 254 l 300 247 l 317 224 l 319 204 l 322 204 l 339 197 l 343 192 l 383 188 l 418 226 l 442 254 l 446 278 l 444 283 l 449 288 l 490 310 l 519 307 l 557 297 l 581 282 l 589 254 l 597 300 l 600 329 l 606 336 l 610 331 l 610 328 l 619 346 l 619 346 m 399 396 l 399 392 l 396 388 l 394 388 l 394 381 l 392 372 l 394 365 l 418 335 l 436 324 l 443 324 l 454 328 l 454 331 l 460 336 l 465 340 l 439 354 l 418 372 l 410 385 l 399 396 l 399 396 m 444 378 l 446 376 l 444 374 l 444 369 l 458 364 l 471 357 l 479 350 l 482 350 l 482 351 l 475 358 l 475 365 l 460 378 l 458 383 l 449 385 l 444 378 l 444 378 m 464 400 l 465 399 l 479 399 l 499 389 l 511 388 l 514 392 l 507 396 l 499 396 l 492 400 l 469 404 l 464 400 l 464 400 m 417 324 l 390 353 l 385 331 l 374 304 l 404 315 l 424 319 l 417 324 l 417 324 m 661 276 l 661 279 l 654 288 l 650 300 l 644 304 l 643 311 l 636 346 l 638 347 l 638 354 l 636 357 l 638 358 l 638 365 l 635 365 l 624 318 l 626 297 l 636 276 l 644 272 l 661 276 l 661 276 m 675 371 l 667 388 l 672 358 l 676 311 l 672 297 l 671 297 l 664 303 l 658 318 l 654 351 l 656 381 l 654 383 l 651 343 l 657 310 l 667 285 l 671 285 l 672 288 l 676 304 l 682 318 l 675 371 l 675 371 m 676 408 l 704 424 l 686 424 l 679 417 l 676 408 l 676 408 m 739 503 l 742 539 l 736 567 l 732 569 l 736 579 l 739 607 l 711 671 l 686 700 l 672 706 l 650 714 l 592 726 l 589 725 l 585 728 l 522 733 l 511 732 l 542 728 l 550 719 l 549 718 l 486 717 l 485 718 l 376 707 l 335 694 l 324 690 l 319 683 l 303 678 l 289 663 l 293 663 l 322 656 l 354 635 l 389 592 l 399 594 l 407 603 l 426 613 l 454 635 l 475 649 l 479 644 l 478 643 l 458 628 l 467 631 l 486 643 l 490 639 l 489 638 l 489 635 l 492 635 l 493 638 l 514 642 l 539 644 l 550 642 l 550 639 l 549 638 l 531 635 l 463 619 l 418 594 l 418 592 l 442 594 l 449 588 l 464 544 l 479 517 l 503 469 l 507 474 l 511 469 l 507 467 l 499 460 l 496 461 l 485 475 l 479 476 l 482 467 l 479 464 l 478 467 l 465 489 l 460 489 l 454 485 l 449 479 l 436 476 l 422 481 l 417 488 l 414 492 l 411 507 l 422 522 l 424 532 l 394 536 l 390 539 l 394 543 l 414 547 l 431 544 l 431 547 l 424 556 l 414 579 l 403 583 l 360 542 l 361 539 l 367 539 l 368 542 l 374 536 l 374 535 l 389 532 l 396 526 l 396 521 l 394 519 l 392 519 l 390 521 l 369 524 l 369 522 l 364 489 l 368 464 l 385 431 l 432 379 l 436 379 l 436 381 l 442 394 l 443 408 l 446 413 l 471 414 l 504 406 l 522 399 l 532 389 l 526 383 l 511 376 l 490 351 l 496 351 l 499 353 l 538 365 l 571 369 l 578 365 l 594 367 l 613 376 l 649 431 l 671 464 l 671 468 l 676 474 l 682 481 l 690 531 l 686 531 l 664 517 l 624 503 l 592 500 l 585 496 l 528 492 l 493 496 l 482 514 l 486 517 l 528 513 l 622 519 l 640 526 l 682 538 l 724 549 l 725 547 l 725 544 l 717 538 l 699 535 l 694 479 l 690 475 l 686 475 l 679 463 l 679 453 l 675 446 l 647 392 l 650 392 l 669 414 l 690 447 l 701 461 l 704 460 l 704 454 l 701 449 l 697 436 l 699 436 l 706 444 l 726 475 l 739 503 l 739 503 m 1026 660 l 1026 665 l 1008 683 l 1008 690 l 1000 699 l 969 721 l 944 733 l 936 739 l 922 742 l 915 739 l 904 747 l 897 747 l 865 761 l 829 775 l 776 788 l 722 794 l 643 796 l 633 790 l 629 788 l 607 788 l 526 772 l 517 765 l 504 758 l 464 735 l 471 735 l 493 738 l 499 740 l 506 740 l 619 735 l 640 728 l 678 710 l 694 707 l 718 685 l 750 632 l 754 618 l 751 617 l 747 582 l 742 574 l 742 564 l 751 551 l 751 549 l 754 543 l 751 538 l 754 535 l 754 528 l 754 526 l 754 514 l 758 517 l 774 542 l 786 557 l 804 589 l 853 635 l 894 651 l 921 663 l 968 669 l 1010 665 l 1026 660 l 1026 660 m 414 476 l 399 496 l 394 513 l 396 513 l 407 492 l 418 476 l 451 469 l 453 469 l 454 468 l 453 467 l 429 469 l 414 476 l 414 476 m 675 500 l 676 488 l 676 485 l 672 481 l 654 479 l 633 474 l 633 469 l 644 454 l 644 449 l 633 460 l 629 460 l 613 440 l 600 428 l 585 421 l 571 424 l 567 431 l 571 449 l 568 451 l 556 447 l 547 442 l 544 444 l 557 453 l 542 456 l 542 460 l 578 469 l 626 492 l 663 510 l 669 508 l 675 500 l 675 500 m 585 408 l 556 419 l 544 431 l 544 435 l 557 424 l 578 417 l 606 419 l 607 421 l 608 419 l 585 408 l 585 408 m 510 417 l 504 417 l 500 419 l 503 424 l 510 424 l 513 419 l 510 417 l 510 417 z "},"{":{"ha":453,"x_min":-1,"x_max":408,"o":"m 400 1014 q 404 994 403 1003 q 406 989 406 986 q 313 976 346 989 q 266 938 281 963 q 252 881 251 914 q 260 806 253 847 q 275 719 267 765 q 286 625 283 674 q 264 504 289 551 q 208 430 239 457 q 152 394 178 403 q 128 386 126 385 q 153 378 128 388 q 208 342 178 369 q 262 266 238 315 q 286 138 286 217 q 278 18 286 72 q 263 -79 269 -36 q 254 -155 256 -122 q 265 -210 253 -187 q 310 -243 278 -232 q 403 -254 342 -254 q 406 -283 404 -271 q 408 -303 407 -294 q 406 -310 408 -311 q 258 -295 313 -312 q 175 -247 203 -278 q 141 -174 147 -217 q 140 -82 135 -132 q 154 22 144 -32 q 168 131 164 76 q 165 201 171 169 q 149 255 160 232 q 122 294 138 278 q 90 322 107 311 q -1 356 51 347 l -1 379 q -1 394 -1 388 q 0 401 -1 401 q 115 467 81 425 q 158 567 150 510 q 157 694 167 624 q 138 842 147 764 q 153 944 131 906 q 208 1000 176 982 q 281 1031 247 1024 q 340 1040 315 1039 q 380 1040 365 1042 q 394 1042 394 1038 l 400 1014 z "},"}":{"ha":440,"x_min":0,"x_max":410,"o":"m 14 1042 q 28 1040 14 1038 q 68 1040 43 1042 q 127 1031 93 1039 q 200 1000 161 1024 q 255 944 232 982 q 271 842 278 906 q 251 694 261 764 q 250 567 242 624 q 293 467 258 510 q 408 401 328 425 l 408 394 q 409 388 408 392 q 410 379 410 383 l 410 356 q 318 322 357 347 q 286 294 301 311 q 259 255 271 278 q 242 201 247 232 q 240 131 236 169 q 254 22 244 76 q 269 -82 264 -32 q 267 -174 274 -132 q 233 -247 261 -217 q 151 -295 206 -278 q 3 -310 96 -312 q 0 -303 0 -311 q 1 -283 0 -294 q 6 -254 3 -271 q 98 -243 65 -254 q 143 -210 131 -232 q 154 -155 156 -187 q 146 -79 153 -122 q 131 18 139 -36 q 122 138 122 72 q 147 266 122 217 q 201 342 171 315 q 256 378 231 369 q 281 386 281 388 q 256 394 282 385 q 200 430 231 403 q 144 504 169 457 q 122 625 119 551 q 133 719 124 674 q 149 806 142 765 q 156 881 156 847 q 142 938 157 914 q 95 976 128 963 q 3 989 63 989 q 3 994 1 986 q 8 1014 6 1003 l 14 1042 z "},"|":{"ha":257,"x_min":99,"x_max":164,"o":"m 99 974 l 164 974 l 164 -229 l 99 -229 l 99 974 z "},"<":{"ha":811,"x_min":85,"x_max":732,"o":"m 732 679 l 164 451 l 732 221 l 732 144 l 85 414 l 85 488 l 732 753 l 732 679 z "},">":{"ha":814,"x_min":82,"x_max":729,"o":"m 82 753 l 729 488 l 729 414 l 82 144 l 82 221 l 650 451 l 82 679 l 82 753 z "},"\"":{"ha":289,"x_min":0,"x_max":258,"o":"m 99 975 l 69 735 l 22 735 l 0 975 l 99 975 m 258 975 l 229 735 l 182 735 l 160 975 l 258 975 z "},"'":{"ha":129,"x_min":0,"x_max":99,"o":"m 99 975 l 69 735 l 22 735 l 0 975 l 99 975 z "},"Z":{"ha":999,"x_min":0,"x_max":1001,"o":"m 274 -146 l 786 -146 l 1001 43 l 894 -229 l 36 -228 l 750 894 l 260 894 l 0 681 l 131 972 l 993 972 l 274 -146 l 274 -146 m 807 842 l 581 553 l 575 476 l 654 508 l 807 842 l 807 842 m 549 417 l 478 392 l 481 322 l 549 346 l 549 417 l 549 417 m 372 228 l 206 -115 l 443 183 l 439 258 l 372 228 l 372 228 z "},"e":{"ha":521,"x_min":1,"x_max":489,"o":"m 1 840 l 489 840 l 489 543 l 388 794 l 222 794 l 222 458 l 321 458 l 388 558 l 388 307 l 324 400 l 222 400 l 222 64 l 393 64 l 489 378 l 489 0 l 1 0 l 63 53 l 63 786 l 1 840 l 1 840 z "},"l":{"ha":447,"x_min":0,"x_max":428,"o":"m 428 0 l 0 0 l 68 51 l 68 785 l 0 840 l 300 840 l 233 793 l 233 54 l 329 54 l 428 363 l 428 0 l 428 0 z "}}}
